<svg width="53" height="53" viewBox="0 0 53 53" fill="none" xmlns="http://www.w3.org/2000/svg">
<path d="M26.4502 0C41.0583 0 52.9012 11.8421 52.9014 26.4502C52.9014 41.0584 41.0584 52.9014 26.4502 52.9014C11.8421 52.9012 0 41.0583 0 26.4502C0.000191728 11.8422 11.8422 0.000191739 26.4502 0ZM30.457 11.9326C30.7487 10.5769 29.0236 9.74237 28.1416 10.8125L15.7939 25.7988C15.0101 26.7502 15.8378 28.1626 17.0508 27.9434L22.79 26.9062C23.7625 26.7308 24.5771 27.6445 24.292 28.5908L20.6436 40.7031C20.2354 42.0581 21.952 43.0225 22.8965 41.9688L36.7568 26.5049C37.5517 25.618 36.8625 24.2151 35.6748 24.3018L29.4297 24.7588C28.5489 24.8232 27.8531 24.0226 28.0391 23.1592L30.457 11.9326Z" fill="#00FF84"/>
</svg>
