<svg width="259" height="53" viewBox="0 0 259 53" fill="none" xmlns="http://www.w3.org/2000/svg">
<circle cx="26.4506" cy="26.4506" r="26.4506" fill="#2B2B2B"/>
<path d="M15.7938 25.7992L28.1412 10.8125C29.0232 9.74191 30.7487 10.5768 30.4567 11.9328L28.0388 23.1595C27.8529 24.0229 28.5485 24.8227 29.4294 24.7583L35.6745 24.3013C36.8624 24.2144 37.5517 25.618 36.7568 26.5049L22.8964 41.9686C21.9519 43.0224 20.2353 42.0583 20.6434 40.7034L24.2924 28.5905C24.5775 27.6441 23.7623 26.7304 22.7896 26.9062L17.0507 27.9434C15.8377 28.1626 15.01 26.7505 15.7938 25.7992Z" fill="#00FF84"/>
<path d="M90.7178 23.3889C97.791 24.2034 102.721 26.0038 102.721 32.8627C102.721 37.8355 98.434 42.208 90.3748 42.208C81.9727 42.208 78.0288 36.8066 78.0288 31.2338H83.6874C83.7731 33.5486 84.8448 37.4068 90.3748 37.4068C95.3904 37.4068 96.8908 34.8776 96.8908 33.2057C96.8908 31.148 95.5619 29.6476 90.3748 28.9617C81.8012 27.8472 79.0576 25.0607 79.0576 19.9166C79.0576 15.2011 83.3016 11.3429 90.4606 11.3429C98.3054 11.3429 101.521 16.0584 101.606 20.9454H96.0763C96.0763 18.9735 94.7474 16.1442 90.3748 16.1442C85.9594 16.1442 84.8448 18.3733 84.8448 19.6594C84.8448 20.8168 85.4021 22.7887 90.7178 23.3889Z" fill="#2B2B2B"/>
<path d="M115.239 18.8877C122.313 18.8877 126.557 24.1176 126.557 30.5479C126.557 36.9781 122.313 42.208 115.239 42.208C108.166 42.208 103.922 36.9781 103.922 30.5479C103.922 24.1176 108.166 18.8877 115.239 18.8877ZM115.239 37.2353C118.969 37.2353 121.069 34.2345 121.069 30.5479C121.069 26.8612 118.969 23.8604 115.239 23.8604C111.51 23.8604 109.409 26.8612 109.409 30.5479C109.409 34.2345 111.51 37.2353 115.239 37.2353Z" fill="#2B2B2B"/>
<path d="M136.595 42.208C131.708 42.208 128.45 39.0358 128.45 32.6055V19.2307H133.937V30.7193C133.937 35.8207 135.266 37.2353 138.138 37.2353C141.311 37.2353 144.226 33.6772 144.226 28.4473V19.2307H149.713V41.8651H144.226V40.4504C144.226 39.0786 144.526 38.2641 144.911 37.3639C145.083 36.9781 145.34 36.3779 144.783 36.2493C144.44 36.1636 144.311 36.4208 144.14 36.7638C143.025 38.9929 140.539 42.208 136.595 42.208Z" fill="#2B2B2B"/>
<path d="M158.371 24.0748C158.629 24.1176 158.843 23.7747 158.886 23.6461C160.258 20.5167 161.501 18.8877 167.031 18.8877V24.4606C160.643 24.0319 158.8 26.3039 158.8 32.0483V41.8651H153.313V19.2307H158.8V20.4739C158.8 21.4598 158.543 22.3172 158.157 23.0888C157.986 23.4746 157.857 23.989 158.371 24.0748Z" fill="#2B2B2B"/>
<path d="M166.866 30.5479C166.866 23.8176 171.282 18.8877 178.312 18.8877C184.657 18.8877 188.429 23.1746 188.815 27.8043H183.413C183.07 25.6609 181.399 23.8604 178.312 23.8604C174.54 23.8604 172.353 26.604 172.353 30.5479C172.353 34.4917 174.54 37.2353 178.312 37.2353C181.399 37.2353 183.07 35.4348 183.413 33.2914H188.815C188.429 37.9212 184.699 42.208 178.312 42.208C171.41 42.208 166.866 37.2782 166.866 30.5479Z" fill="#2B2B2B"/>
<path d="M212.113 30.2478C212.113 30.8479 212.07 31.2766 211.984 31.9196H195.523C195.908 35.3491 198.138 37.4068 201.567 37.4068C204.182 37.4068 205.511 35.9921 206.154 33.9773H211.727C210.741 38.6499 207.569 42.208 201.524 42.208C194.194 42.208 190.164 37.2782 190.164 30.5479C190.164 23.4746 194.537 18.8877 201.438 18.8877C206.668 18.8877 212.113 22.0171 212.113 30.2478ZM195.737 28.1473H206.626C206.411 25.4037 204.782 23.346 201.61 23.346C197.88 23.346 196.294 25.4466 195.737 28.1473Z" fill="#2B2B2B"/>
<path d="M223.213 15.8012C220.898 15.8012 220.855 15.9727 220.855 18.4591V19.2307H227.028V24.0319H220.855V41.8651H215.368V24.0319H211.939V19.2307H215.368V17.9446C215.368 12.5004 217.512 11 222.056 11H227.028V15.8012H223.213Z" fill="#2B2B2B"/>
<path d="M236.381 42.208C231.494 42.208 228.236 39.0358 228.236 32.6055V19.2307H233.723V30.7193C233.723 35.8207 235.052 37.2353 237.924 37.2353C241.096 37.2353 244.011 33.6772 244.011 28.4473V19.2307H249.498V41.8651H244.011V40.4504C244.011 39.0786 244.311 38.2641 244.697 37.3639C244.869 36.9781 245.126 36.3779 244.568 36.2493C244.226 36.1636 244.097 36.4208 243.925 36.7638C242.811 38.9929 240.325 42.208 236.381 42.208Z" fill="#2B2B2B"/>
<path d="M253.099 11H258.586V41.8651H253.099V11Z" fill="#2B2B2B"/>
</svg>
