<svg width="422" height="49" viewBox="0 0 422 49" fill="none" xmlns="http://www.w3.org/2000/svg">
<path d="M80.6427 19.2045C88.3948 20.0972 93.7977 22.0704 93.7977 29.5875C93.7977 35.0374 89.0995 39.8296 80.2669 39.8296C71.0584 39.8296 66.7361 33.9099 66.7361 27.8022H72.9377C73.0317 30.3392 74.2062 34.5676 80.2669 34.5676C85.7638 34.5676 87.4082 31.7957 87.4082 29.9634C87.4082 27.7082 85.9517 26.0639 80.2669 25.3122C70.8705 24.0906 67.8637 21.0368 67.8637 15.399C67.8637 10.2309 72.5149 6.00257 80.3609 6.00257C88.9586 6.00257 92.4822 11.1706 92.5762 16.5265H86.5155C86.5155 14.3654 85.0591 11.2645 80.2669 11.2645C75.4277 11.2645 74.2062 13.7076 74.2062 15.1171C74.2062 16.3856 74.817 18.5468 80.6427 19.2045Z" fill="white"/>
<path d="M107.518 14.2714C115.27 14.2714 119.921 20.0032 119.921 27.0505C119.921 34.0978 115.27 39.8296 107.518 39.8296C99.7655 39.8296 95.1143 34.0978 95.1143 27.0505C95.1143 20.0032 99.7655 14.2714 107.518 14.2714ZM107.518 34.3797C111.605 34.3797 113.907 31.0909 113.907 27.0505C113.907 23.01 111.605 19.7213 107.518 19.7213C103.43 19.7213 101.128 23.01 101.128 27.0505C101.128 31.0909 103.43 34.3797 107.518 34.3797Z" fill="white"/>
<path d="M130.923 39.8296C125.567 39.8296 121.996 36.3529 121.996 29.3056V14.6472H128.01V27.2384C128.01 32.8293 129.466 34.3797 132.614 34.3797C136.091 34.3797 139.285 30.4802 139.285 24.7484V14.6472H145.299V39.4537H139.285V37.9033C139.285 36.3999 139.614 35.5072 140.037 34.5206C140.225 34.0978 140.507 33.44 139.896 33.2991C139.52 33.2051 139.379 33.487 139.191 33.8629C137.97 36.3059 135.245 39.8296 130.923 39.8296Z" fill="white"/>
<path d="M154.789 19.9562C155.071 20.0032 155.306 19.6273 155.353 19.4864C156.856 16.0567 158.218 14.2714 164.279 14.2714V20.379C157.279 19.9092 155.259 22.3993 155.259 28.6949V39.4537H149.245V14.6472H155.259V16.0097C155.259 17.0903 154.977 18.0299 154.554 18.8756C154.366 19.2985 154.225 19.8622 154.789 19.9562Z" fill="white"/>
<path d="M164.099 27.0505C164.099 19.6743 168.938 14.2714 176.643 14.2714C183.596 14.2714 187.731 18.9696 188.154 24.0436H182.234C181.858 21.6945 180.026 19.7213 176.643 19.7213C172.509 19.7213 170.113 22.7281 170.113 27.0505C170.113 31.3728 172.509 34.3797 176.643 34.3797C180.026 34.3797 181.858 32.4064 182.234 30.0573H188.154C187.731 35.1314 183.643 39.8296 176.643 39.8296C169.079 39.8296 164.099 34.4267 164.099 27.0505Z" fill="white"/>
<path d="M213.687 26.7216C213.687 27.3794 213.64 27.8492 213.546 28.5539H195.505C195.928 32.3125 198.371 34.5676 202.13 34.5676C204.996 34.5676 206.452 33.0172 207.157 30.809H213.264C212.184 35.9301 208.707 39.8296 202.083 39.8296C194.049 39.8296 189.632 34.4267 189.632 27.0505C189.632 19.2985 194.425 14.2714 201.989 14.2714C207.721 14.2714 213.687 17.7011 213.687 26.7216ZM195.74 24.4195H207.674C207.439 21.4127 205.653 19.1575 202.177 19.1575C198.089 19.1575 196.351 21.4596 195.74 24.4195Z" fill="white"/>
<path d="M225.853 10.8887C223.316 10.8887 223.269 11.0766 223.269 13.8016V14.6472H230.034V19.9092H223.269V39.4537H217.255V19.9092H213.497V14.6472H217.255V13.2378C217.255 7.27108 219.604 5.62671 224.584 5.62671H230.034V10.8887H225.853Z" fill="white"/>
<path d="M240.284 39.8296C234.928 39.8296 231.358 36.3529 231.358 29.3056V14.6472H237.371V27.2384C237.371 32.8293 238.828 34.3797 241.976 34.3797C245.452 34.3797 248.647 30.4802 248.647 24.7484V14.6472H254.661V39.4537H248.647V37.9033C248.647 36.3999 248.976 35.5072 249.399 34.5206C249.587 34.0978 249.869 33.44 249.258 33.2991C248.882 33.2051 248.741 33.487 248.553 33.8629C247.331 36.3059 244.607 39.8296 240.284 39.8296Z" fill="white"/>
<path d="M258.606 5.62671H264.62V39.4537H258.606V5.62671Z" fill="white"/>
<path d="M292.117 6.37842C304.473 6.37842 309.077 14.1774 309.077 22.9161C309.077 31.6547 304.191 39.4537 292.117 39.4537H279.761V6.37842H292.117ZM292.822 33.8159C299.493 33.8159 302.688 28.4599 302.688 22.9161C302.688 17.3722 299.493 12.0163 292.822 12.0163H286.15V33.8159H292.822Z" fill="white" fill-opacity="0.7"/>
<path d="M334.453 26.7216C334.453 27.3794 334.406 27.8492 334.312 28.5539H316.271C316.693 32.3125 319.136 34.5676 322.895 34.5676C325.761 34.5676 327.217 33.0172 327.922 30.809H334.03C332.949 35.9301 329.472 39.8296 322.848 39.8296C314.814 39.8296 310.398 34.4267 310.398 27.0505C310.398 19.2985 315.19 14.2714 322.754 14.2714C328.486 14.2714 334.453 17.7011 334.453 26.7216ZM316.505 24.4195H328.439C328.204 21.4127 326.419 19.1575 322.942 19.1575C318.855 19.1575 317.116 21.4596 316.505 24.4195Z" fill="white" fill-opacity="0.7"/>
<path d="M335.748 31.0909H341.668C341.715 32.9232 342.795 35.1314 347.164 35.1314C351.017 35.1314 352.285 33.8159 352.285 32.1715C352.285 30.3392 349.842 30.0573 345.097 29.4936C337.486 28.5539 336.5 24.6074 336.5 21.8355C336.5 17.795 340.07 14.2714 347.117 14.2714C353.648 14.2714 357.219 17.7481 357.547 22.2583H351.628C351.487 20.7079 350.453 18.9696 346.977 18.9696C343.547 18.9696 342.513 20.0972 342.513 21.5066C342.513 22.6812 343.03 23.6678 347.869 24.1376C353.93 24.7484 358.299 26.7216 358.299 31.7017C358.299 36.8697 354.306 39.8296 346.977 39.8296C339.788 39.8296 335.983 36.3999 335.748 31.0909Z" fill="white" fill-opacity="0.7"/>
<path d="M360.766 11.6404V5.62671H366.78V11.6404H360.766ZM360.766 39.4537V14.6472H366.78V39.4537H360.766Z" fill="white" fill-opacity="0.7"/>
<path d="M369.243 26.4867C369.243 19.8153 373.612 14.2714 380.049 14.2714C383.901 14.2714 386.297 16.1977 387.895 18.7817C387.942 18.8756 388.223 19.4864 388.646 19.2985C389.116 19.1105 388.787 18.4998 388.552 18.0299C388.176 17.3252 388.035 16.6675 388.035 15.7748V14.6472H394.049V36.8227C394.049 44.7627 389.398 48.8501 381.787 48.8501C373.988 48.8501 370.417 44.6687 369.994 40.0175H375.914C376.196 42.2726 377.699 43.964 381.693 43.964C385.921 43.964 388.035 41.6149 388.035 37.0576C388.035 36.212 388.176 35.5542 388.552 34.8495C388.787 34.3797 389.116 33.9099 388.646 33.6749C388.223 33.487 387.988 33.9099 387.895 34.0978C386.297 36.8227 383.807 38.702 380.049 38.702C373.612 38.702 369.243 33.1581 369.243 26.4867ZM381.458 33.2521C385.404 33.2521 388.035 30.1513 388.035 26.4867C388.035 22.8221 385.404 19.7213 381.458 19.7213C377.23 19.7213 375.256 22.8221 375.256 26.4867C375.256 30.1513 377.23 33.2521 381.458 33.2521Z" fill="white" fill-opacity="0.7"/>
<path d="M412.4 14.2714C417.756 14.2714 421.326 17.7481 421.326 24.7954V39.4537H415.313V26.8626C415.313 21.2717 413.856 19.7213 410.708 19.7213C407.232 19.7213 404.037 23.6208 404.037 29.3526V39.4537H398.023V14.6472H404.037V16.1977C404.037 17.7011 403.755 18.5937 403.285 19.5804C403.097 20.0032 402.815 20.6609 403.426 20.8019C403.802 20.8959 403.943 20.614 404.131 20.2381C405.258 17.7481 408.077 14.2714 412.4 14.2714Z" fill="white" fill-opacity="0.7"/>
<mask id="path-3-inside-1_1469_2301" fill="white">
<path d="M23.7227 0C33.8569 0 38.9239 0.000166884 42.0723 3.14844C45.2206 6.29677 45.2207 11.3638 45.2207 21.498V23.8691C45.2207 34.0036 45.2206 39.0714 42.0723 42.2197C38.9239 45.3679 33.8568 45.3682 23.7227 45.3682H21.498C11.3639 45.3682 6.29679 45.3679 3.14844 42.2197C7.31031e-05 39.0714 0 34.0036 0 23.8691V21.498C2.43139e-10 11.3638 0.000100771 6.29677 3.14844 3.14844C6.29678 0.000107517 11.3638 1.85236e-10 21.498 0H23.7227ZM27.2275 7.67578C27.541 6.21313 25.6892 5.31248 24.7422 6.4668L11.4863 22.6338C10.6453 23.66 11.5339 25.1827 12.8359 24.9463L18.9971 23.8281C20.0412 23.6386 20.9163 24.6237 20.6104 25.6445L16.6934 38.7109C16.2552 40.1724 18.0973 41.2124 19.1113 40.0762L33.9912 23.3945C34.8443 22.4378 34.1042 20.9238 32.8291 21.0176L26.125 21.5107C25.1794 21.5803 24.4323 20.7175 24.6318 19.7861L27.2275 7.67578Z"/>
</mask>
<path d="M23.7227 0C33.8569 0 38.9239 0.000166884 42.0723 3.14844C45.2206 6.29677 45.2207 11.3638 45.2207 21.498V23.8691C45.2207 34.0036 45.2206 39.0714 42.0723 42.2197C38.9239 45.3679 33.8568 45.3682 23.7227 45.3682H21.498C11.3639 45.3682 6.29679 45.3679 3.14844 42.2197C7.31031e-05 39.0714 0 34.0036 0 23.8691V21.498C2.43139e-10 11.3638 0.000100771 6.29677 3.14844 3.14844C6.29678 0.000107517 11.3638 1.85236e-10 21.498 0H23.7227ZM27.2275 7.67578C27.541 6.21313 25.6892 5.31248 24.7422 6.4668L11.4863 22.6338C10.6453 23.66 11.5339 25.1827 12.8359 24.9463L18.9971 23.8281C20.0412 23.6386 20.9163 24.6237 20.6104 25.6445L16.6934 38.7109C16.2552 40.1724 18.0973 41.2124 19.1113 40.0762L33.9912 23.3945C34.8443 22.4378 34.1042 20.9238 32.8291 21.0176L26.125 21.5107C25.1794 21.5803 24.4323 20.7175 24.6318 19.7861L27.2275 7.67578Z" fill="white"/>
<path d="M23.7227 0V-1V0ZM42.0723 3.14844L42.7794 2.44133L42.7794 2.44132L42.0723 3.14844ZM45.2207 21.498H46.2207H45.2207ZM42.0723 42.2197L42.7793 42.9269L42.7794 42.9268L42.0723 42.2197ZM23.7227 45.3682V46.3682V45.3682ZM21.498 45.3682V46.3682V45.3682ZM3.14844 42.2197L2.44133 42.9268L2.44135 42.9268L3.14844 42.2197ZM0 21.498H-1H0ZM3.14844 3.14844L2.44133 2.44133L2.44133 2.44133L3.14844 3.14844ZM21.498 0V-1V0ZM27.2275 7.67578L28.2053 7.88536V7.88535L27.2275 7.67578ZM24.7422 6.4668L23.9691 5.83253L23.9689 5.83275L24.7422 6.4668ZM11.4863 22.6338L10.713 21.9997L10.7129 21.9999L11.4863 22.6338ZM12.8359 24.9463L12.6574 23.9624L12.6573 23.9624L12.8359 24.9463ZM18.9971 23.8281L19.1756 24.8121L19.1757 24.812L18.9971 23.8281ZM20.6104 25.6445L21.5682 25.9317L21.5683 25.9316L20.6104 25.6445ZM16.6934 38.7109L17.6512 38.9981L17.6512 38.9981L16.6934 38.7109ZM19.1113 40.0762L19.8574 40.742L19.8576 40.7418L19.1113 40.0762ZM33.9912 23.3945L34.7375 24.0602L34.7376 24.06L33.9912 23.3945ZM32.8291 21.0176L32.7558 20.0203L32.7557 20.0203L32.8291 21.0176ZM26.125 21.5107L26.1983 22.5081L26.1984 22.508L26.125 21.5107ZM24.6318 19.7861L23.654 19.5766L23.654 19.5766L24.6318 19.7861ZM23.7227 0V1C28.8181 1 32.539 1.00217 35.3839 1.3847C38.2001 1.76336 40.0077 2.49817 41.3652 3.85555L42.0723 3.14844L42.7794 2.44132C40.9884 0.650435 38.6884 -0.188977 35.6504 -0.597464C32.6412 -1.00208 28.7615 -1 23.7227 -1V0ZM42.0723 3.14844L41.3652 3.85554C42.7226 5.21295 43.4574 7.0206 43.836 9.83678C44.2186 12.6817 44.2207 16.4027 44.2207 21.498H45.2207H46.2207C46.2207 16.4592 46.2228 12.5795 45.8182 9.57027C45.4097 6.53229 44.5703 4.23226 42.7794 2.44133L42.0723 3.14844ZM45.2207 21.498H44.2207V23.8691H45.2207H46.2207V21.498H45.2207ZM45.2207 23.8691H44.2207C44.2207 28.9646 44.2186 32.6858 43.836 35.531C43.4574 38.3474 42.7226 40.1552 41.3652 41.5126L42.0723 42.2197L42.7794 42.9268C44.5703 41.1359 45.4097 38.8356 45.8182 35.7975C46.2228 32.788 46.2207 28.9081 46.2207 23.8691H45.2207ZM42.0723 42.2197L41.3652 41.5126C40.0078 42.8699 38.2001 43.6047 35.3839 43.9834C32.5389 44.366 28.818 44.3682 23.7227 44.3682V45.3682V46.3682C28.7615 46.3682 32.6412 46.3702 35.6504 45.9656C38.6884 45.5571 40.9884 44.7177 42.7793 42.9269L42.0723 42.2197ZM23.7227 45.3682V44.3682H21.498V45.3682V46.3682H23.7227V45.3682ZM21.498 45.3682V44.3682C16.4027 44.3682 12.6818 44.366 9.83684 43.9834C7.02064 43.6048 5.21294 42.87 3.85553 41.5126L3.14844 42.2197L2.44135 42.9268C4.23228 44.7177 6.53233 45.5571 9.57031 45.9656C12.5795 46.3702 16.4592 46.3682 21.498 46.3682V45.3682ZM3.14844 42.2197L3.85554 41.5126C2.49814 40.1552 1.76332 38.3474 1.38466 35.531C1.00214 32.6858 1 28.9646 1 23.8691H0H-1C-1 28.9081 -1.00211 32.788 -0.597501 35.7975C-0.189031 38.8356 0.65037 41.1359 2.44133 42.9268L3.14844 42.2197ZM0 23.8691H1V21.498H0H-1V23.8691H0ZM0 21.498H1C1 16.4027 1.00215 12.6817 1.38467 9.83678C1.76333 7.0206 2.49814 5.21295 3.85554 3.85554L3.14844 3.14844L2.44133 2.44133C0.650402 4.23226 -0.189011 6.53229 -0.597489 9.57027C-1.0021 12.5795 -1 16.4592 -1 21.498H0ZM3.14844 3.14844L3.85554 3.85555C5.21295 2.49814 7.0206 1.76333 9.83678 1.38468C12.6817 1.00215 16.4027 1 21.498 1V0V-1C16.4592 -1 12.5795 -1.0021 9.57027 -0.597486C6.53229 -0.189007 4.23226 0.650405 2.44133 2.44133L3.14844 3.14844ZM21.498 0V1H23.7227V0V-1H21.498V0ZM27.2275 7.67578L28.2053 7.88535C28.7343 5.41741 25.5941 3.85173 23.9691 5.83253L24.7422 6.4668L25.5153 7.10106C25.6027 6.99454 25.6861 6.95911 25.7535 6.94682C25.8311 6.93266 25.9264 6.94358 26.0201 6.98919C26.1139 7.03479 26.1829 7.10376 26.2212 7.17608C26.2548 7.23943 26.279 7.32974 26.2497 7.46621L27.2275 7.67578ZM24.7422 6.4668L23.9689 5.83275L10.713 21.9997L11.4863 22.6338L12.2596 23.2678L25.5155 7.10085L24.7422 6.4668ZM11.4863 22.6338L10.7129 21.9999C9.29103 23.7348 10.7833 26.3353 13.0146 25.9302L12.8359 24.9463L12.6573 23.9624C12.2845 24.0301 11.9995 23.5852 12.2598 23.2677L11.4863 22.6338ZM12.8359 24.9463L13.0145 25.9302L19.1756 24.8121L18.9971 23.8281L18.8185 22.8442L12.6574 23.9624L12.8359 24.9463ZM18.9971 23.8281L19.1757 24.812C19.4769 24.7574 19.7465 25.0435 19.6524 25.3575L20.6104 25.6445L21.5683 25.9316C22.086 24.2039 20.6054 22.5198 18.8185 22.8442L18.9971 23.8281ZM20.6104 25.6445L19.6525 25.3574L15.7355 38.4238L16.6934 38.7109L17.6512 38.9981L21.5682 25.9317L20.6104 25.6445ZM16.6934 38.7109L15.7355 38.4238C14.9973 40.886 18.1148 42.6946 19.8574 40.742L19.1113 40.0762L18.3652 39.4103C18.2708 39.5162 18.1847 39.5472 18.1173 39.5558C18.0387 39.5658 17.9425 39.5494 17.8494 39.4969C17.7564 39.4443 17.6909 39.3695 17.6574 39.2941C17.6283 39.2286 17.61 39.1358 17.6512 38.9981L16.6934 38.7109ZM19.1113 40.0762L19.8576 40.7418L34.7375 24.0602L33.9912 23.3945L33.245 22.7289L18.3651 39.4105L19.1113 40.0762ZM33.9912 23.3945L34.7376 24.06C36.181 22.4413 34.9388 19.8598 32.7558 20.0203L32.8291 21.0176L32.9024 22.0149C33.2695 21.9879 33.5076 22.4344 33.2448 22.729L33.9912 23.3945ZM32.8291 21.0176L32.7557 20.0203L26.0516 20.5134L26.125 21.5107L26.1984 22.508L32.9025 22.0149L32.8291 21.0176ZM26.125 21.5107L26.0517 20.5134C25.7777 20.5336 25.5485 20.2812 25.6096 19.9957L24.6318 19.7861L23.654 19.5766C23.3161 21.1537 24.5811 22.627 26.1983 22.5081L26.125 21.5107ZM24.6318 19.7861L25.6096 19.9957L28.2053 7.88536L27.2275 7.67578L26.2497 7.4662L23.654 19.5766L24.6318 19.7861Z" fill="white" mask="url(#path-3-inside-1_1469_2301)"/>
</svg>
