<svg width="425" height="50" viewBox="0 0 425 50" fill="none" xmlns="http://www.w3.org/2000/svg">
<path d="M80.7694 19.6467C88.5098 20.538 93.9046 22.5083 93.9046 30.0142C93.9046 35.4559 89.2135 40.2409 80.3941 40.2409C71.1994 40.2409 66.8835 34.33 66.8835 28.2315H73.0759C73.1697 30.7647 74.3425 34.9868 80.3941 34.9868C85.8828 34.9868 87.5247 32.219 87.5247 30.3895C87.5247 28.1377 86.0704 26.4958 80.3941 25.7452C71.0118 24.5255 68.0094 21.4762 68.0094 15.8468C68.0094 10.6866 72.6537 6.46453 80.4879 6.46453C89.0727 6.46453 92.5911 11.6248 92.6849 16.9727H86.6333C86.6333 14.8148 85.1791 11.7186 80.3941 11.7186C75.5622 11.7186 74.3425 14.158 74.3425 15.5654C74.3425 16.832 74.9523 18.9899 80.7694 19.6467Z" fill="white"/>
<path d="M107.604 14.721C115.344 14.721 119.989 20.4442 119.989 27.4809C119.989 34.5177 115.344 40.2409 107.604 40.2409C99.8635 40.2409 95.2193 34.5177 95.2193 27.4809C95.2193 20.4442 99.8635 14.721 107.604 14.721ZM107.604 34.7991C111.685 34.7991 113.984 31.5153 113.984 27.4809C113.984 23.4465 111.685 20.1627 107.604 20.1627C103.523 20.1627 101.224 23.4465 101.224 27.4809C101.224 31.5153 103.523 34.7991 107.604 34.7991Z" fill="white"/>
<path d="M130.974 40.2409C125.626 40.2409 122.061 36.7694 122.061 29.7327V15.0963H128.065V27.6686C128.065 33.2511 129.52 34.7991 132.663 34.7991C136.134 34.7991 139.324 30.9055 139.324 25.1823V15.0963H145.329V39.8656H139.324V38.3175C139.324 36.8163 139.653 35.925 140.075 34.9399C140.262 34.5177 140.544 33.8609 139.934 33.7202C139.559 33.6264 139.418 33.9078 139.23 34.2831C138.011 36.7225 135.29 40.2409 130.974 40.2409Z" fill="white"/>
<path d="M154.804 20.3973C155.086 20.4442 155.32 20.0689 155.367 19.9282C156.868 16.5036 158.229 14.721 164.281 14.721V20.8195C157.291 20.3504 155.273 22.8367 155.273 29.1228V39.8656H149.269V15.0963H155.273V16.4567C155.273 17.5357 154.992 18.4739 154.57 19.3183C154.382 19.7405 154.241 20.3035 154.804 20.3973Z" fill="white"/>
<path d="M164.101 27.4809C164.101 20.1158 168.932 14.721 176.626 14.721C183.569 14.721 187.697 19.4121 188.119 24.4786H182.208C181.833 22.133 180.004 20.1627 176.626 20.1627C172.498 20.1627 170.105 23.1651 170.105 27.4809C170.105 31.7968 172.498 34.7991 176.626 34.7991C180.004 34.7991 181.833 32.8289 182.208 30.4833H188.119C187.697 35.5497 183.616 40.2409 176.626 40.2409C169.073 40.2409 164.101 34.8461 164.101 27.4809Z" fill="white"/>
<path d="M213.615 27.1525C213.615 27.8093 213.568 28.2784 213.474 28.9821H195.46C195.882 32.735 198.321 34.9868 202.074 34.9868C204.936 34.9868 206.39 33.4387 207.094 31.2339H213.192C212.113 36.3472 208.642 40.2409 202.027 40.2409C194.006 40.2409 189.596 34.8461 189.596 27.4809C189.596 19.7405 194.381 14.721 201.934 14.721C207.657 14.721 213.615 18.1455 213.615 27.1525ZM195.694 24.8539H207.61C207.375 21.8515 205.593 19.5998 202.121 19.5998C198.04 19.5998 196.304 21.8984 195.694 24.8539Z" fill="white"/>
<path d="M225.762 11.3433C223.229 11.3433 223.182 11.531 223.182 14.2519V15.0963H229.937V20.3504H223.182V39.8656H217.177V20.3504H213.424V15.0963H217.177V13.6889C217.177 7.73114 219.523 6.08923 224.496 6.08923H229.937V11.3433H225.762Z" fill="white"/>
<path d="M240.172 40.2409C234.824 40.2409 231.259 36.7694 231.259 29.7327V15.0963H237.263V27.6686C237.263 33.2511 238.718 34.7991 241.861 34.7991C245.332 34.7991 248.522 30.9055 248.522 25.1823V15.0963H254.527V39.8656H248.522V38.3175C248.522 36.8163 248.85 35.925 249.273 34.9399C249.46 34.5177 249.742 33.8609 249.132 33.7202C248.757 33.6264 248.616 33.9078 248.428 34.2831C247.209 36.7225 244.488 40.2409 240.172 40.2409Z" fill="white"/>
<path d="M258.467 6.08923H264.471V39.8656H258.467V6.08923Z" fill="white"/>
<path d="M302.857 12.4692H285.969V20.7257H299.855V25.9798H285.969V34.2362H302.857V39.8656H279.589V6.83982H302.857V12.4692Z" fill="white" fill-opacity="0.7"/>
<path d="M320.768 14.721C326.116 14.721 329.681 18.1924 329.681 25.2292V39.8656H323.677V27.2933C323.677 21.7108 322.222 20.1627 319.079 20.1627C315.608 20.1627 312.418 24.0564 312.418 29.7796V39.8656H306.413V15.0963H312.418V16.6443C312.418 18.1455 312.136 19.0368 311.667 20.022C311.48 20.4442 311.198 21.101 311.808 21.2417C312.183 21.3355 312.324 21.054 312.512 20.6787C313.638 18.1924 316.452 14.721 320.768 14.721Z" fill="white" fill-opacity="0.7"/>
<path d="M355.755 27.1525C355.755 27.8093 355.708 28.2784 355.614 28.9821H337.6C338.022 32.735 340.461 34.9868 344.214 34.9868C347.076 34.9868 348.53 33.4387 349.234 31.2339H355.332C354.253 36.3472 350.782 40.2409 344.167 40.2409C336.146 40.2409 331.736 34.8461 331.736 27.4809C331.736 19.7405 336.521 14.721 344.074 14.721C349.797 14.721 355.755 18.1455 355.755 27.1525ZM337.834 24.8539H349.75C349.515 21.8515 347.733 19.5998 344.261 19.5998C340.18 19.5998 338.444 21.8984 337.834 24.8539Z" fill="white" fill-opacity="0.7"/>
<path d="M363.352 20.3973C363.633 20.4442 363.868 20.0689 363.915 19.9282C365.416 16.5036 366.776 14.721 372.828 14.721V20.8195C365.838 20.3504 363.821 22.8367 363.821 29.1228V39.8656H357.816V15.0963H363.821V16.4567C363.821 17.5357 363.539 18.4739 363.117 19.3183C362.93 19.7405 362.789 20.3035 363.352 20.3973Z" fill="white" fill-opacity="0.7"/>
<path d="M373.014 26.918C373.014 20.2565 377.377 14.721 383.804 14.721C387.651 14.721 390.043 16.6443 391.638 19.2245C391.685 19.3183 391.967 19.9282 392.389 19.7405C392.858 19.5529 392.53 18.943 392.295 18.4739C391.92 17.7702 391.779 17.1135 391.779 16.2221V15.0963H397.784V37.2385C397.784 45.1666 393.14 49.2479 385.54 49.2479C377.753 49.2479 374.187 45.0728 373.765 40.4285H379.676C379.957 42.6803 381.459 44.3691 385.446 44.3691C389.668 44.3691 391.779 42.0235 391.779 37.4731C391.779 36.6287 391.92 35.9719 392.295 35.2683C392.53 34.7991 392.858 34.33 392.389 34.0955C391.967 33.9078 391.732 34.33 391.638 34.5177C390.043 37.2386 387.557 39.115 383.804 39.115C377.377 39.115 373.014 33.5794 373.014 26.918ZM385.211 33.6733C389.152 33.6733 391.779 30.5771 391.779 26.918C391.779 23.2589 389.152 20.1627 385.211 20.1627C380.989 20.1627 379.019 23.2589 379.019 26.918C379.019 30.5771 380.989 33.6733 385.211 33.6733Z" fill="white" fill-opacity="0.7"/>
<path d="M399.116 15.0963H405.496L411.032 31.0931C411.36 32.0783 411.407 32.9696 411.407 33.9078C411.407 34.2362 411.454 34.7053 411.97 34.7053C412.486 34.7053 412.533 34.2831 412.533 33.9078C412.533 33.0165 412.627 32.0783 412.955 31.0931L418.256 15.0963H424.636L414.128 42.7272C412.439 47.1369 410.093 48.8726 405.777 48.8726H401.274V43.6185H403.338C406.903 43.6185 407.607 43.6185 408.264 41.6952L408.78 40.194L399.116 15.0963Z" fill="white" fill-opacity="0.7"/>
<mask id="path-2-inside-1_1396_2315" fill="white">
<path d="M23.7227 0C33.8569 0 38.9239 0.000166884 42.0723 3.14844C45.2206 6.29677 45.2207 11.3638 45.2207 21.498V23.8691C45.2207 34.0036 45.2206 39.0714 42.0723 42.2197C38.9239 45.3679 33.8568 45.3682 23.7227 45.3682H21.498C11.3639 45.3682 6.29679 45.3679 3.14844 42.2197C7.31031e-05 39.0714 0 34.0036 0 23.8691V21.498C2.43139e-10 11.3638 0.000100771 6.29677 3.14844 3.14844C6.29678 0.000107517 11.3638 1.85236e-10 21.498 0H23.7227ZM27.2275 7.67578C27.541 6.21313 25.6892 5.31248 24.7422 6.4668L11.4863 22.6338C10.6453 23.66 11.5339 25.1827 12.8359 24.9463L18.9971 23.8281C20.0412 23.6386 20.9163 24.6237 20.6104 25.6445L16.6934 38.7109C16.2552 40.1724 18.0973 41.2124 19.1113 40.0762L33.9912 23.3945C34.8443 22.4378 34.1042 20.9238 32.8291 21.0176L26.125 21.5107C25.1794 21.5803 24.4323 20.7175 24.6318 19.7861L27.2275 7.67578Z"/>
</mask>
<path d="M23.7227 0C33.8569 0 38.9239 0.000166884 42.0723 3.14844C45.2206 6.29677 45.2207 11.3638 45.2207 21.498V23.8691C45.2207 34.0036 45.2206 39.0714 42.0723 42.2197C38.9239 45.3679 33.8568 45.3682 23.7227 45.3682H21.498C11.3639 45.3682 6.29679 45.3679 3.14844 42.2197C7.31031e-05 39.0714 0 34.0036 0 23.8691V21.498C2.43139e-10 11.3638 0.000100771 6.29677 3.14844 3.14844C6.29678 0.000107517 11.3638 1.85236e-10 21.498 0H23.7227ZM27.2275 7.67578C27.541 6.21313 25.6892 5.31248 24.7422 6.4668L11.4863 22.6338C10.6453 23.66 11.5339 25.1827 12.8359 24.9463L18.9971 23.8281C20.0412 23.6386 20.9163 24.6237 20.6104 25.6445L16.6934 38.7109C16.2552 40.1724 18.0973 41.2124 19.1113 40.0762L33.9912 23.3945C34.8443 22.4378 34.1042 20.9238 32.8291 21.0176L26.125 21.5107C25.1794 21.5803 24.4323 20.7175 24.6318 19.7861L27.2275 7.67578Z" fill="white"/>
<path d="M23.7227 0V-1V0ZM42.0723 3.14844L42.7794 2.44133L42.7794 2.44132L42.0723 3.14844ZM45.2207 21.498H46.2207H45.2207ZM42.0723 42.2197L42.7793 42.9269L42.7794 42.9268L42.0723 42.2197ZM23.7227 45.3682V46.3682V45.3682ZM21.498 45.3682V46.3682V45.3682ZM3.14844 42.2197L2.44133 42.9268L2.44135 42.9268L3.14844 42.2197ZM0 21.498H-1H0ZM3.14844 3.14844L2.44133 2.44133L2.44133 2.44133L3.14844 3.14844ZM21.498 0V-1V0ZM27.2275 7.67578L28.2053 7.88536V7.88535L27.2275 7.67578ZM24.7422 6.4668L23.9691 5.83253L23.9689 5.83275L24.7422 6.4668ZM11.4863 22.6338L10.713 21.9997L10.7129 21.9999L11.4863 22.6338ZM12.8359 24.9463L12.6574 23.9624L12.6573 23.9624L12.8359 24.9463ZM18.9971 23.8281L19.1756 24.8121L19.1757 24.812L18.9971 23.8281ZM20.6104 25.6445L21.5682 25.9317L21.5683 25.9316L20.6104 25.6445ZM16.6934 38.7109L17.6512 38.9981L17.6512 38.9981L16.6934 38.7109ZM19.1113 40.0762L19.8574 40.742L19.8576 40.7418L19.1113 40.0762ZM33.9912 23.3945L34.7375 24.0602L34.7376 24.06L33.9912 23.3945ZM32.8291 21.0176L32.7558 20.0203L32.7557 20.0203L32.8291 21.0176ZM26.125 21.5107L26.1983 22.5081L26.1984 22.508L26.125 21.5107ZM24.6318 19.7861L23.654 19.5766L23.654 19.5766L24.6318 19.7861ZM23.7227 0V1C28.8181 1 32.539 1.00217 35.3839 1.3847C38.2001 1.76336 40.0077 2.49817 41.3652 3.85555L42.0723 3.14844L42.7794 2.44132C40.9884 0.650435 38.6884 -0.188977 35.6504 -0.597464C32.6412 -1.00208 28.7615 -1 23.7227 -1V0ZM42.0723 3.14844L41.3652 3.85554C42.7226 5.21295 43.4574 7.0206 43.836 9.83678C44.2186 12.6817 44.2207 16.4027 44.2207 21.498H45.2207H46.2207C46.2207 16.4592 46.2228 12.5795 45.8182 9.57027C45.4097 6.53229 44.5703 4.23226 42.7794 2.44133L42.0723 3.14844ZM45.2207 21.498H44.2207V23.8691H45.2207H46.2207V21.498H45.2207ZM45.2207 23.8691H44.2207C44.2207 28.9646 44.2186 32.6858 43.836 35.531C43.4574 38.3474 42.7226 40.1552 41.3652 41.5126L42.0723 42.2197L42.7794 42.9268C44.5703 41.1359 45.4097 38.8356 45.8182 35.7975C46.2228 32.788 46.2207 28.9081 46.2207 23.8691H45.2207ZM42.0723 42.2197L41.3652 41.5126C40.0078 42.8699 38.2001 43.6047 35.3839 43.9834C32.5389 44.366 28.818 44.3682 23.7227 44.3682V45.3682V46.3682C28.7615 46.3682 32.6412 46.3702 35.6504 45.9656C38.6884 45.5571 40.9884 44.7177 42.7793 42.9269L42.0723 42.2197ZM23.7227 45.3682V44.3682H21.498V45.3682V46.3682H23.7227V45.3682ZM21.498 45.3682V44.3682C16.4027 44.3682 12.6818 44.366 9.83684 43.9834C7.02064 43.6048 5.21294 42.87 3.85553 41.5126L3.14844 42.2197L2.44135 42.9268C4.23228 44.7177 6.53233 45.5571 9.57031 45.9656C12.5795 46.3702 16.4592 46.3682 21.498 46.3682V45.3682ZM3.14844 42.2197L3.85554 41.5126C2.49814 40.1552 1.76332 38.3474 1.38466 35.531C1.00214 32.6858 1 28.9646 1 23.8691H0H-1C-1 28.9081 -1.00211 32.788 -0.597501 35.7975C-0.189031 38.8356 0.65037 41.1359 2.44133 42.9268L3.14844 42.2197ZM0 23.8691H1V21.498H0H-1V23.8691H0ZM0 21.498H1C1 16.4027 1.00215 12.6817 1.38467 9.83678C1.76333 7.0206 2.49814 5.21295 3.85554 3.85554L3.14844 3.14844L2.44133 2.44133C0.650402 4.23226 -0.189011 6.53229 -0.597489 9.57027C-1.0021 12.5795 -1 16.4592 -1 21.498H0ZM3.14844 3.14844L3.85554 3.85555C5.21295 2.49814 7.0206 1.76333 9.83678 1.38468C12.6817 1.00215 16.4027 1 21.498 1V0V-1C16.4592 -1 12.5795 -1.0021 9.57027 -0.597486C6.53229 -0.189007 4.23226 0.650405 2.44133 2.44133L3.14844 3.14844ZM21.498 0V1H23.7227V0V-1H21.498V0ZM27.2275 7.67578L28.2053 7.88535C28.7343 5.41741 25.5941 3.85173 23.9691 5.83253L24.7422 6.4668L25.5153 7.10106C25.6027 6.99454 25.6861 6.95911 25.7535 6.94682C25.8311 6.93266 25.9264 6.94358 26.0201 6.98919C26.1139 7.03479 26.1829 7.10376 26.2212 7.17608C26.2548 7.23943 26.279 7.32974 26.2497 7.46621L27.2275 7.67578ZM24.7422 6.4668L23.9689 5.83275L10.713 21.9997L11.4863 22.6338L12.2596 23.2678L25.5155 7.10085L24.7422 6.4668ZM11.4863 22.6338L10.7129 21.9999C9.29103 23.7348 10.7833 26.3353 13.0146 25.9302L12.8359 24.9463L12.6573 23.9624C12.2845 24.0301 11.9995 23.5852 12.2598 23.2677L11.4863 22.6338ZM12.8359 24.9463L13.0145 25.9302L19.1756 24.8121L18.9971 23.8281L18.8185 22.8442L12.6574 23.9624L12.8359 24.9463ZM18.9971 23.8281L19.1757 24.812C19.4769 24.7574 19.7465 25.0435 19.6524 25.3575L20.6104 25.6445L21.5683 25.9316C22.086 24.2039 20.6054 22.5198 18.8185 22.8442L18.9971 23.8281ZM20.6104 25.6445L19.6525 25.3574L15.7355 38.4238L16.6934 38.7109L17.6512 38.9981L21.5682 25.9317L20.6104 25.6445ZM16.6934 38.7109L15.7355 38.4238C14.9973 40.886 18.1148 42.6946 19.8574 40.742L19.1113 40.0762L18.3652 39.4103C18.2708 39.5162 18.1847 39.5472 18.1173 39.5558C18.0387 39.5658 17.9425 39.5494 17.8494 39.4969C17.7564 39.4443 17.6909 39.3695 17.6574 39.2941C17.6283 39.2286 17.61 39.1358 17.6512 38.9981L16.6934 38.7109ZM19.1113 40.0762L19.8576 40.7418L34.7375 24.0602L33.9912 23.3945L33.245 22.7289L18.3651 39.4105L19.1113 40.0762ZM33.9912 23.3945L34.7376 24.06C36.181 22.4413 34.9388 19.8598 32.7558 20.0203L32.8291 21.0176L32.9024 22.0149C33.2695 21.9879 33.5076 22.4344 33.2448 22.729L33.9912 23.3945ZM32.8291 21.0176L32.7557 20.0203L26.0516 20.5134L26.125 21.5107L26.1984 22.508L32.9025 22.0149L32.8291 21.0176ZM26.125 21.5107L26.0517 20.5134C25.7777 20.5336 25.5485 20.2812 25.6096 19.9957L24.6318 19.7861L23.654 19.5766C23.3161 21.1537 24.5811 22.627 26.1983 22.5081L26.125 21.5107ZM24.6318 19.7861L25.6096 19.9957L28.2053 7.88536L27.2275 7.67578L26.2497 7.4662L23.654 19.5766L24.6318 19.7861Z" fill="white" mask="url(#path-2-inside-1_1396_2315)"/>
</svg>
