<svg width="160" height="80" viewBox="0 0 160 80" fill="none" xmlns="http://www.w3.org/2000/svg">
<g clip-path="url(#clip0_7_80)">
<path d="M143.263 29C141.752 29 140.525 30.2114 140.525 31.704C140.525 33.1967 141.752 34.4081 143.263 34.4081C144.774 34.4081 146 33.1967 146 31.704C146 30.2114 144.774 29 143.263 29ZM143.263 33.9971C141.993 33.9971 140.941 32.9587 140.941 31.704C140.941 30.4494 141.971 29.411 143.263 29.411C144.555 29.411 145.584 30.4494 145.584 31.704C145.584 32.9587 144.533 33.9971 143.263 33.9971Z" fill="#1A1A1A"/>
<path d="M144.248 31.1205C144.248 30.8393 144.16 30.6446 143.985 30.4932C143.81 30.3418 143.525 30.2769 143.153 30.2769H142.343V33.1539H142.825V32.0074H143.241L143.941 33.1539H144.489L143.679 31.8776C144.051 31.7262 144.248 31.4017 144.248 31.1205ZM143.153 31.6181H142.825V30.6662H143.131C143.35 30.6662 143.503 30.7095 143.613 30.7744C143.722 30.8393 143.766 30.9475 143.766 31.1205C143.766 31.2936 143.722 31.4017 143.613 31.4883C143.503 31.5748 143.35 31.6181 143.131 31.6181H143.153Z" fill="#1A1A1A"/>
<path d="M128.328 48.2094C126.752 48.2094 125.219 47.8633 123.861 47.1495C121.146 45.7217 119.197 43.061 117.555 40.6814C117.292 40.3137 117.051 39.9459 116.788 39.5565V39.5133C115.912 38.2802 115.058 37.0039 114.117 35.7493C112.606 33.7591 111.182 32.3314 109.628 31.2498C107.504 29.7788 105.073 29 102.555 29C100.036 29 97.5839 29.7788 95.4598 31.2498C93.9051 32.3314 92.4817 33.7591 90.9708 35.7493C90.0292 36.9823 89.1752 38.2586 88.3212 39.5133V39.5565C88.0365 39.9243 87.7956 40.292 87.5328 40.6598C85.8905 43.0393 83.9416 45.7001 81.2263 47.1278C79.8686 47.8417 78.3358 48.2094 76.7591 48.1878C75.1825 48.1878 73.6496 47.8417 72.292 47.1278C69.5766 45.7001 67.6277 43.0393 65.9854 40.6598C65.7226 40.2704 65.4598 39.881 65.1971 39.4916C64.365 38.2586 63.489 36.9823 62.5474 35.7276C61.0365 33.7375 59.6131 32.3097 58.0584 31.2281C55.9124 29.7788 53.4599 29 50.9635 29H50.9197C48.4015 29 45.9708 29.7788 43.8467 31.2498C42.292 32.3314 40.8686 33.7591 39.3577 35.7493C38.4161 36.9823 37.562 38.2586 36.708 39.5133C36.4453 39.9027 36.1825 40.292 35.9197 40.6814C34.2993 43.061 32.3285 45.7217 29.6131 47.1495C28.2555 47.8633 26.7226 48.2527 25.1241 48.2094C21.0073 48.2094 17.5912 45.2458 16.9343 41.3736H33.5766C33.9489 40.8545 34.3212 40.3353 34.6715 39.8378C34.9343 39.47 35.1752 39.1023 35.438 38.7345V38.6912C35.6569 38.41 35.854 38.1072 36.0511 37.826C35.0219 32.7856 30.5109 29 25.1241 29C19.7372 29 14 33.9322 14 39.9892C14 46.0462 18.9927 50.9784 25.1241 50.9784C27.1606 50.9784 29.1752 50.5241 30.9489 49.5723C34.2117 47.8417 36.4234 44.8564 38.2628 42.2173C38.5255 41.8279 38.7883 41.4385 39.0511 41.0492C39.8613 39.8378 40.7153 38.5831 41.6131 37.4149C42.9489 35.6627 44.1752 34.4297 45.4671 33.5211C47.1095 32.3746 48.9927 31.7689 50.9416 31.7689H50.9635C52.8905 31.7689 54.7737 32.3746 56.4161 33.5211C57.7299 34.4297 58.9343 35.6627 60.2701 37.4149C61.1679 38.6047 62.0219 39.8378 62.8321 41.0492C63.0949 41.4385 63.3577 41.8279 63.6204 42.2173C65.438 44.8781 67.6496 47.8417 70.9343 49.5723C72.708 50.5025 74.7007 51 76.7372 50.9784C78.7737 50.9784 80.7883 50.5025 82.5401 49.5723C85.8029 47.8417 88.0146 44.8564 89.854 42.2173C90.1168 41.8496 90.3577 41.4602 90.6204 41.0924V41.0492C91.4744 39.8378 92.3285 38.5831 93.2044 37.4149C94.5401 35.6627 95.7664 34.4297 97.0584 33.5211C98.7007 32.3746 100.584 31.7689 102.533 31.7689H102.555C104.482 31.7689 106.365 32.3746 108.007 33.5211C109.321 34.4297 110.526 35.6627 111.861 37.4149C112.759 38.6047 113.613 39.8378 114.423 41.0492V41.0924C114.708 41.4602 114.971 41.8496 115.212 42.2173C117.029 44.8781 119.241 47.8417 122.526 49.5723C124.255 50.4808 126.226 50.9784 128.219 50.9784C130.212 50.9784 128.307 50.9784 128.35 50.9784C132.336 50.9784 136.036 48.8584 138.007 45.4405L135.555 44.056C134.066 46.6087 131.307 48.1878 128.328 48.1878V48.2094ZM25.1241 31.7906C29.2409 31.7906 32.6569 34.7542 33.3139 38.6264H16.9343C17.6131 34.7542 21.0292 31.7906 25.1241 31.7906Z" fill="#1A1A1A"/>
<path d="M59.2629 38.5836V39.9897C59.2629 44.5108 55.5403 48.2099 50.9417 48.2099C46.3432 48.2099 42.6206 44.5325 42.6206 39.9897V38.5836C41.8103 39.6652 41.0439 40.7901 40.2994 41.8933V41.9366C40.1899 42.0447 40.1242 42.1529 40.0366 42.2611C41.1096 47.2365 45.5768 50.9789 50.9198 50.9789C56.2629 50.9789 57.2045 49.5511 59.241 47.2797V50.0703H62.0658V42.6072C61.8906 42.3692 61.7373 42.1313 61.5622 41.8717C60.8176 40.7684 60.0512 39.6436 59.241 38.562L59.2629 38.5836Z" fill="#1A1A1A"/>
<path d="M76.4086 41.352C77.7663 41.6549 81.7517 42.6716 82.8466 44.0993C83.5254 43.4503 84.1385 42.7365 84.7298 42.001C82.9998 40.2055 79.7152 39.2537 77.0436 38.648C72.1385 37.5231 71.3721 36.0088 71.3502 35.1868C71.3502 34.4297 71.5911 33.8024 72.1166 33.2832C73.0363 32.353 74.7663 31.7906 76.7152 31.7906C78.6641 31.7906 81.5108 32.8938 83.0655 34.8191L85.2553 33.0885C83.1531 30.4926 80.0436 29 76.6933 29C73.3429 29 71.5473 29.8437 70.0801 31.3147C69.029 32.3746 68.4816 33.7375 68.5254 35.2301C68.5911 38.1072 71.2407 40.1622 76.4086 41.352Z" fill="#1A1A1A"/>
<path d="M110.876 38.6052H94.2115C93.4231 39.6868 92.6567 40.8117 91.9122 41.8933V41.9366C91.8027 42.0447 91.737 42.1529 91.6494 42.2611C92.7224 47.2365 97.1896 50.9789 102.533 50.9789C107.876 50.9789 110.219 48.8589 112.19 45.441L109.737 44.0565C108.248 46.6091 105.489 48.1883 102.511 48.1883C99.5326 48.1883 94.9779 45.2247 94.3209 41.3525H112.803C112.168 40.4223 111.511 39.4705 110.854 38.562L110.876 38.6052Z" fill="#1A1A1A"/>
<path d="M128.35 29C122.963 29 118.453 32.7856 117.423 37.826C117.62 38.1288 117.818 38.41 118.015 38.6912V38.7345C118.299 39.1023 118.54 39.47 118.803 39.8378C119.153 40.3353 119.526 40.8761 119.898 41.3736H139.474V39.9892C139.474 33.9322 134.482 29 128.35 29ZM120.139 38.6047C120.818 34.7325 124.234 31.7689 128.328 31.7689C132.423 31.7689 135.861 34.7325 136.518 38.6047H120.117H120.139Z" fill="#1A1A1A"/>
</g>
<defs>
<clipPath id="clip0_7_80">
<rect width="132" height="22" fill="white" transform="translate(14 29)"/>
</clipPath>
</defs>
</svg>
