<svg width="160" height="80" viewBox="0 0 160 80" fill="none" xmlns="http://www.w3.org/2000/svg">
<g clip-path="url(#clip0_10_519)">
<path d="M54.6751 28L54.6365 28.3912V50.3164L54.6751 50.7089H49.4258L49.4728 50.3177V28.3899L49.4258 28H54.6751ZM47.0621 28L47.0222 28.3912V50.3164L47.0621 50.7089H41.8135L41.8592 50.3177V28.3899L41.8135 28H47.0621Z" fill="black"/>
<path d="M96.7329 28.3916V50.3242L96.7583 50.7148H91.521L91.5698 50.3242V48.5469L90.979 49.2852C90.2658 50.1767 88.9996 50.9295 87.2153 50.9746C84.8038 51.0365 79.6552 49.499 79.5923 42.5635C79.5283 35.4443 86.9362 32.5124 91.0444 35.4561L91.5698 35.8311V28.3896L91.5132 28.0068H96.7681L96.7329 28.3916ZM63.9946 34.8828L59.9487 41.7363L64.5444 50.3193L64.7954 50.7236H58.6431L58.5503 50.3291L54.0142 41.7451L58.0083 34.8779L58.0815 34.4873H64.2573L63.9946 34.8828ZM90.7681 41.0254C90.0248 40.0124 88.9383 39.3964 87.7222 39.5322C85.6308 39.7648 84.2751 42.0331 85.019 43.9932C85.4913 45.2059 86.7119 46.0164 87.9927 46.0869C88.9998 46.0843 89.9511 45.6092 90.6245 44.7412C90.9157 44.3375 91.1246 43.8802 91.2378 43.3955L91.2485 43.2627C91.2734 42.9773 91.3051 42.417 91.2378 42.1113C91.1517 41.7228 90.992 41.3544 90.7681 41.0254Z" fill="black"/>
<path d="M114.226 44.3382C113.899 43.6035 113.225 42.9843 112.357 42.8974C110.838 42.7452 109.568 44.0711 109.826 45.5315C110.071 46.8358 111.406 47.8972 112.807 47.3714C114.051 46.8744 114.645 45.5929 114.226 44.3382ZM114.783 49.807C114.76 49.6489 114.492 49.1238 114.086 49.53C112.705 50.9702 110.457 51.2902 108.62 50.5548C107.707 50.189 106.921 49.5829 106.38 48.7417C105.21 46.764 105.102 44.2559 106.44 42.3109C108.091 39.989 111.219 39.249 113.737 40.3554L114.078 40.505L114.187 40.149C114.53 39.0348 113.495 38.1275 112.641 37.9146C111.592 37.7448 110.57 37.8121 109.597 37.9342C108.782 38.0368 107.973 38.1811 107.155 38.2614C107.52 36.3157 107.427 36.7044 107.864 34.6058C110.778 34.4236 113.543 34.1937 116.383 34.871C117.157 35.1133 117.805 35.5287 118.337 36.1819C118.569 36.4692 118.748 36.8285 118.868 37.1883C119.099 37.7657 119.106 38.4202 119.106 39.1458V50.3242L119.136 50.7024H114.763L114.809 50.3242C114.817 50.0728 114.819 50.0029 114.78 49.7717L114.783 49.807ZM104.171 34.4889L104.13 34.8801V50.4718C104.065 51.5495 103.629 52.586 103.005 53.588C102.361 54.4671 101.935 55.2424 101.02 56C99.7662 54.9759 98.1901 54.0739 97.0739 52.993C98.2835 51.6579 98.8714 49.9252 98.9341 48.2126V34.8801L98.8903 34.4889H104.171ZM104.149 28L104.13 28.3899V32.105L104.159 32.4505H98.8988L98.9347 32.105V28.3899L98.9008 28H104.149ZM126.613 36.319L127.142 35.9324C128.078 35.2459 129.345 34.6705 130.503 34.549C131.943 34.4249 133.332 34.6169 134.469 35.449C135.379 36.2413 135.923 37.253 135.925 38.362C135.934 46.1246 135.932 49.1545 135.928 50.3242C135.928 50.4895 135.94 50.6175 135.939 50.7168H130.734L130.756 50.3242V41.6401C130.72 41.3874 130.714 41.098 130.66 40.7819C130.597 40.3825 130.449 40.0015 130.225 39.665C129.762 38.9812 128.994 38.6599 128.209 38.8173C127.54 39.0145 127.156 39.4737 126.945 39.9903C126.742 40.4913 126.683 41.0307 126.617 41.5337L126.613 50.3242L126.645 50.7168H121.134C121.136 50.7161 121.156 50.4777 121.157 50.3242C121.169 47.8639 121.205 39.7303 121.161 34.8801C121.156 34.7547 121.147 34.6294 121.133 34.5046H126.64L126.613 34.8801V36.319ZM39.2758 44.0156L39.6475 48.9546C36.79 51.0094 32.8516 51.6821 29.5807 50.1949C27.4789 49.2341 25.9074 47.3074 25.2412 45.0057C24.5724 42.6956 24.7455 40.3358 25.961 38.3C28.5552 33.9566 34.2918 33.0448 38.1616 35.886C39.4633 36.8415 40.409 38.2288 40.5292 39.731C37.8115 41.6362 34.9789 43.3657 32.3291 45.3395L31.9104 45.6517L32.3761 45.8849C34.8561 47.1245 37.4471 45.7973 39.2758 44.0156ZM29.661 42.0137C29.6257 42.3586 29.6558 42.7367 29.8648 43.0711L30.0444 43.3592L34.8103 40.0151L34.5831 39.746C33.7692 38.7846 32.4558 38.7467 31.4212 39.2986C30.7406 39.7062 30.1776 40.3358 29.8981 41.0347C29.8027 41.3201 29.6956 41.6708 29.661 42.0137ZM77.7032 44.0156L78.0748 48.9546C75.2173 51.0094 71.2783 51.6821 68.0074 50.1949C65.9056 49.2341 64.3341 47.3074 63.6679 45.0057C62.9991 42.6956 63.1722 40.3358 64.387 38.3C66.9819 33.9566 72.7184 33.0448 76.5876 35.886C77.8893 36.8415 78.8351 38.2288 78.9553 39.731C76.2375 41.6362 73.4049 43.3657 70.7551 45.3395L70.3365 45.6517L70.8028 45.8849C73.2834 47.1245 75.8738 45.7973 77.7032 44.0156ZM68.0884 42.0137C68.0531 42.3586 68.0825 42.7367 68.2921 43.0711L68.4711 43.3592L73.2377 40.0151L73.0104 39.746C72.1966 38.7846 70.8831 38.7467 69.8479 39.2986C69.168 39.7062 68.605 40.3358 68.3254 41.0347C68.2307 41.3201 68.123 41.6708 68.0884 42.0137Z" fill="black"/>
</g>
<defs>
<clipPath id="clip0_10_519">
<rect width="111.111" height="28" fill="white" transform="translate(24.8413 28)"/>
</clipPath>
</defs>
</svg>
