<svg width="160" height="80" viewBox="0 0 160 80" fill="none" xmlns="http://www.w3.org/2000/svg">
<path fill-rule="evenodd" clip-rule="evenodd" d="M24.3651 46.2128C24.114 46.2203 23.9474 46.2501 23.8852 46.2128C23.649 46.0039 23.7087 45.3799 23.7261 44.9323C23.557 44.6041 23.7534 41.7324 23.8057 41.7324C24.3551 42.2421 25.009 42.4933 25.6455 42.9309C26.5829 43.5773 27.4854 44.4699 28.5247 45.0094C28.9275 45.2183 30.3198 45.8224 30.6033 45.9691C31.9508 46.6703 33.6291 47.1178 35.0811 47.6474C36.2497 48.0726 39.3203 48.6643 39.8797 47.727H39.9593C39.9319 47.6996 39.9071 47.6748 39.8797 47.6474C39.0841 47.0059 37.8683 47.0482 36.7619 46.6877C35.653 46.3272 34.733 46.0686 33.4824 45.4893C30.1309 43.9353 27.3114 41.8493 24.6858 39.5718C24.7132 39.4923 26.3914 37.9458 26.4461 37.9731C26.5655 37.8488 27.5849 36.7101 27.8857 36.2949C28.1816 35.8821 30.5436 32.6375 31.3243 31.178C31.824 30.2431 33.0026 29.4525 33.0846 28.1397C32.8907 28.0353 32.8584 27.9955 32.5252 27.9806C32.3412 28.3859 31.8812 28.6345 31.645 28.9403C31.4934 29.1392 31.5307 29.3506 31.4063 29.5793C31.2572 29.8528 30.9389 30.1337 30.7674 30.3774C30.4789 30.7901 30.4044 31.2426 30.1284 31.6579C28.8827 33.5201 27.4978 35.4992 25.8096 36.9363C25.198 37.456 24.4521 38.7588 23.5695 38.9353C23.5421 38.908 23.5172 38.8831 23.4899 38.8558C23.4924 37.1775 23.1319 35.3898 22.7713 33.8185V32.6201C22.5749 31.8568 22.5898 31.2451 22.0528 30.4619C21.8862 30.5142 21.8738 30.452 21.7321 30.5415C21.1155 30.7031 20.5635 31.5783 20.5337 32.3018C20.3074 32.6599 20.653 33.3411 20.7748 33.7414C21.0682 34.6216 21.3616 35.5017 21.655 36.3794C21.8315 37.0059 21.7619 37.548 21.9757 38.0577H21.5754C21.1254 37.7469 20.1831 37.9358 19.7355 38.0577C19.4148 38.5574 18.8628 39.1342 18.6963 39.7359C18.5247 40.36 19.0518 40.7205 18.8554 41.5758C18.6813 42.3441 18.6192 42.7344 18.6167 43.5748C18.7584 43.6519 18.751 43.6767 18.9374 43.7339C19.6087 43.2914 20.4417 43.2168 21.016 42.6947C21.4238 42.3242 21.8365 41.7076 22.4556 41.5758C22.6545 41.6554 22.5973 42.5206 22.6968 43.0949C22.9205 44.4077 22.8633 46.173 22.8559 47.814C23.0374 47.911 23.0349 47.9458 23.3357 47.9731C23.5371 47.267 24.2333 47.0706 24.375 46.2128H24.3651Z" fill="black"/>
<path fill-rule="evenodd" clip-rule="evenodd" d="M101.135 38.2143C100.481 38.1322 99.9418 38.0054 99.2158 38.2143C98.0373 38.5524 96.1378 39.6141 94.738 39.0149C93.9324 38.6693 93.8528 38.1845 93.4575 37.8165C93.3953 36.0238 96.5331 34.0696 97.9354 33.3386C98.4749 33.0577 100.014 32.5803 100.215 32.7394C100.414 32.8985 98.0174 33.8881 97.6967 34.7782H98.097C98.4973 34.6439 98.8976 34.5122 99.2954 34.3779C100.362 33.8309 102.694 32.7394 101.774 31.7399C100.961 31.0959 98.8255 31.72 98.1765 32.0606C95.9587 33.2168 93.4824 34.7682 92.1 36.7797C91.7668 37.2645 90.7673 38.3386 91.3019 39.3381C91.7668 40.2058 92.7787 40.2655 93.7807 40.6186C93.7534 40.6459 93.7285 40.6708 93.7012 40.6981C93.189 41.2103 92.4754 41.3968 91.8613 41.817C90.8692 42.4957 89.8374 43.3038 88.9821 44.1367C88.3605 44.7409 87.7041 45.1387 87.7017 46.3769C88.1442 46.8344 88.4948 47.4087 89.1412 47.6573C90.4018 48.1397 91.8339 48.1347 93.2984 48.4579C93.9548 48.6021 94.8971 48.4505 95.6181 48.6171H96.8986C97.2268 48.6817 97.7912 48.5773 98.097 48.6171C98.8155 48.7115 99.9667 48.8856 100.576 48.7762C100.65 48.7638 101.133 48.6071 101.215 48.6171C101.759 48.6718 102.727 48.6568 103.694 48.6966C104.017 48.7115 104.546 48.5972 104.733 48.6171C106.028 48.7538 107.192 48.7638 108.251 48.6171C109.696 48.4157 110.628 48.6693 111.531 48.4579C112.117 48.4853 112.704 48.5102 113.291 48.5375C113.825 48.4281 114.798 48.4803 115.611 48.2988C116.369 48.1273 116.869 48.3709 117.451 48.2988C118.639 48.1496 119.87 48.0328 120.65 47.8985C121.536 47.7468 122.699 48.0253 123.288 47.5778C115.133 47.712 103.776 48.4579 96.7394 47.4187C94.7007 47.1178 91.6226 46.6181 91.1825 46.4192C90.7424 46.2202 89.9493 45.6061 89.9418 44.8602C92.1422 42.6946 94.5589 41.0711 97.7787 39.9025C98.8006 39.532 101.056 39.4152 101.138 38.2242L101.135 38.2143Z" fill="black"/>
<path fill-rule="evenodd" clip-rule="evenodd" d="M46.4758 32.4187C46.063 32.8389 45.4688 33.1447 45.1953 33.6992C44.9914 34.1144 45.1804 34.4823 45.1157 34.9796C44.8795 36.7449 45.3345 39.4923 45.8343 41.2974C46.2793 42.8986 45.9064 44.7036 46.4733 46.096C46.6921 46.0313 46.707 46.0512 46.9531 46.096C47.1421 45.7081 47.6269 45.6435 47.8333 45.2954C48.2659 44.6763 47.7139 42.8439 47.6742 42.0159C47.6045 40.5838 47.2714 37.7295 47.2739 37.6176C47.2913 36.8642 47.0004 35.7106 46.8736 35.2183V34.179C46.8487 33.6793 46.8388 33.0577 46.7144 32.4187H46.4758Z" fill="black"/>
<path fill-rule="evenodd" clip-rule="evenodd" d="M147.115 34.2162C146.697 34.4574 144.091 34.4474 143.756 34.3753C143.127 34.5767 141.901 34.6165 141.197 34.7756C140.857 34.8527 140.126 34.711 139.599 34.8552C136.67 35.6657 134.507 35.7801 132.642 37.6548C132.692 37.794 132.657 37.7318 132.721 37.8139C132.838 38.0178 132.704 37.9034 132.96 37.973C133.094 38.0501 133.326 38.075 133.52 37.973C133.781 37.8363 134.124 37.4782 134.4 37.334C134.927 37.0581 135.414 37.068 135.998 36.8542C137.704 36.2276 140.349 36.0063 142.637 35.4146C143.49 35.1933 144.507 35.2928 145.036 35.1759C146.058 34.9472 146.63 35.1287 147.435 34.696C147.871 34.4623 148.544 34.7781 148.795 34.3753H148.395C148.107 34.2038 147.592 34.2187 147.115 34.2162Z" fill="black"/>
<path fill-rule="evenodd" clip-rule="evenodd" d="M51.0233 38.8285C50.9263 38.8956 50.884 38.8931 50.6926 38.913C50.4788 39.4899 49.8273 39.6664 49.6185 40.2532C49.5638 40.7554 49.5091 41.2601 49.4544 41.7624C49.3251 42.7196 49.3947 46.5261 50.9387 46.6256C51.1327 46.3198 51.3415 46.5112 51.6001 46.2899C51.6274 46.2054 51.6548 46.1234 51.6821 46.0388C52.0949 45.6186 52.5076 45.2009 52.9203 44.7807C53.1043 44.4724 53.3331 43.9702 53.3331 43.9429C53.3604 43.9702 53.3878 43.9976 53.4151 44.0274C53.8701 44.7534 53.8104 45.4446 54.8994 45.5366C55.2376 45.2929 55.7324 45.273 56.0556 45.0344C56.5553 44.6614 56.8462 43.8409 57.4579 43.6097V43.6942C57.7861 44.0895 57.791 44.649 58.2013 45.1189C58.43 45.3824 58.7756 45.5465 59.0267 45.7902C59.3972 45.7977 59.6384 45.7902 59.7701 45.7057C60.2102 45.5938 60.879 45.1438 61.0083 44.6987C60.9263 44.726 60.8442 44.7534 60.7597 44.7832C60.7498 44.3606 59.8646 43.3113 59.5215 42.5182C59.1511 41.6679 59.3475 40.5739 59.1908 39.6689C59.0019 39.5669 59.0044 39.5321 58.6961 39.5023C58.2336 39.9946 57.5001 40.3551 57.1272 40.9269C56.7667 41.4814 56.5131 43.2019 55.889 43.3586C55.5882 42.819 55.3345 42.0259 55.1456 41.3471V40.6758C55.0735 40.5217 54.9392 40.4794 54.7329 40.4247C54.6434 40.3626 54.6558 40.375 54.4842 40.3402C54.0814 40.7405 53.5444 41.009 53.164 41.4292C52.5722 42.0881 52.5872 43.4531 51.7617 43.8608V43.6917C51.078 42.8887 51.7344 41.014 51.2669 40.0866C51.2868 39.8678 51.4037 39.3581 51.349 39.2487C51.2719 39.0025 51.2023 38.9553 51.0183 38.8285H51.0233Z" fill="black"/>
<path fill-rule="evenodd" clip-rule="evenodd" d="M80.6628 38.5898C80.0785 39.0174 79.6683 38.5574 78.7434 38.7489C77.9552 38.913 75.9189 39.1964 74.7453 39.0696C74.6285 39.0572 74.1785 39.2685 73.9447 39.1492C73.7061 39.0274 73.905 38.8434 73.3853 38.7489C72.9104 39.179 71.4659 40.2307 71.3863 40.907C71.2197 41.2054 71.998 41.8991 72.1049 42.267C72.0775 42.4013 72.0527 42.5331 72.0253 42.6673C72.254 43.6519 72.6494 44.5246 72.6643 45.7852C72.8707 45.9294 72.7961 45.9791 73.1442 46.0239C73.5072 45.3501 74.6335 45.3551 74.8224 44.5843C74.3848 44.1616 74.1884 42.0433 74.1834 40.825C74.3202 40.7777 74.4346 40.7529 74.6633 40.7454C75.1332 40.4122 76.8314 40.4968 77.7811 40.2655C80.3346 39.6415 83.2784 39.9523 85.7772 39.3854V39.1467C84.1436 38.5003 81.8239 38.9553 80.6603 38.5873L80.6628 38.5898Z" fill="black"/>
<path fill-rule="evenodd" clip-rule="evenodd" d="M119.407 46.1729V45.9343C119.661 45.882 120.77 45.3873 120.847 45.2953C121.162 44.9099 120.946 44.0894 121.085 43.535C121.242 42.9183 121.595 42.339 122.045 42.0158C123.201 41.1854 124.865 41.8443 125.884 41.2177C125.961 41.1033 125.961 40.9566 125.963 40.7378C125.566 40.5041 125.312 40.4072 124.603 40.4171C124.171 40.1511 122.408 40.7826 121.965 41.0561C121.52 41.3321 121.197 41.8144 120.605 41.9362C120.615 41.6777 120.489 41.1531 120.367 40.6558C120.18 40.5215 119.994 40.3898 119.807 40.2555C119.305 40.4047 118.676 41.0387 118.609 41.6155C118.532 41.7299 118.509 42.3142 118.609 42.7344C118.872 43.8433 118.912 44.7458 118.93 46.0138C119.161 46.0809 119.136 46.1257 119.41 46.1729H119.407Z" fill="black"/>
<path fill-rule="evenodd" clip-rule="evenodd" d="M139.678 44.8527C139.096 44.9049 138.845 45.2455 138.318 45.3325C136.926 45.5638 136.09 43.9054 135.76 43.0128C135.516 42.3589 135.715 40.6682 134.959 40.2928C134.82 40.1908 134.631 40.1734 134.559 40.2132C134.109 40.3151 133.535 40.7279 133.36 41.0934C132.818 41.6627 133.413 42.6225 133.681 43.2515V43.6518C134.064 44.7159 134.295 45.1908 135.041 45.892C135.233 46.071 135.419 46.347 135.68 46.4514C136.705 46.8641 139.673 46.0461 139.678 44.8527Z" fill="black"/>
<path fill-rule="evenodd" clip-rule="evenodd" d="M101.655 40.2157C101.312 40.5688 100.82 40.8522 100.536 41.255C99.8921 42.0059 100.213 45.8771 100.775 46.8517C100.956 46.8219 100.897 46.8343 101.175 46.8517C101.441 46.4887 101.986 46.3744 102.294 46.0511C102.893 45.4271 103.361 44.3928 103.734 43.5723C103.798 43.6543 103.763 43.5947 103.813 43.7314C104.057 43.9999 104.027 44.3381 104.213 44.6911C104.492 45.2207 104.979 45.6111 105.332 46.0511C105.892 45.9666 106.804 46.0238 107.09 45.3326C107.299 45.0989 107.199 44.9398 107.17 44.532C106.444 44.0223 106.016 42.6648 105.73 41.9736C105.511 41.439 105.479 40.9666 104.85 40.8547V40.7752C104.823 40.8025 104.798 40.8274 104.77 40.8547C103.888 41.0934 102.533 42.6722 102.291 43.5723H102.212V43.0924C102.065 42.8612 102.204 41.1978 102.212 40.6136C102.006 40.4818 101.891 40.3152 101.652 40.2133L101.655 40.2157Z" fill="black"/>
<path fill-rule="evenodd" clip-rule="evenodd" d="M117.766 43.1746C116.359 43.09 114.962 44.4202 113.848 44.7733C112.94 45.0617 111.73 44.6713 111.449 43.8931C112.304 43.4381 113.704 42.6972 113.768 41.4938C113.853 41.377 113.962 41.0388 113.768 40.7753C113.614 40.273 113.264 40.1835 112.57 40.2158C112.428 40.1313 112.033 40.1263 111.61 40.1363C110.882 40.6907 109.967 40.9841 109.452 41.735C108.612 42.9632 108.758 45.1512 109.932 45.9742C111.991 47.4162 114.641 45.2332 116.17 44.3755C116.737 44.0572 117.63 43.8956 117.848 43.2566C117.821 43.2293 117.796 43.2044 117.769 43.1771L117.766 43.1746ZM110.889 42.7743C110.489 42.2546 111.033 41.9662 111.13 41.5734C111.158 41.546 111.183 41.5212 111.21 41.4938C111.536 41.4689 111.575 41.3794 111.769 41.4938C111.998 41.6504 112.01 41.735 112.008 42.1328C111.841 42.3715 111.894 42.5555 111.608 42.6922C111.461 42.7917 111.153 42.7792 110.889 42.7718V42.7743Z" fill="black"/>
<path fill-rule="evenodd" clip-rule="evenodd" d="M133.721 53.0104C133.626 52.814 133.219 51.8891 133 51.4913C132.632 50.8697 132.013 49.1467 132.04 49.1716C132.102 49.3257 131.242 46.2526 131.08 44.5321C131.038 44.0671 130.78 43.3859 130.921 42.7742C131.063 42.1552 131.274 41.5709 131.16 40.9344C130.984 40.8349 130.916 40.7603 130.68 40.6957C130.392 40.9319 129.899 41.2949 129.561 41.4142C129.072 40.728 127.915 40.6236 127.082 41.0935C126.869 41.3073 126.655 41.5211 126.443 41.7325C125.218 42.645 124.435 43.5649 124.604 45.4918C124.947 45.631 124.957 45.917 125.322 46.0512C126.414 46.9189 128.301 45.0865 128.92 44.8528V44.9324C129.472 45.7777 129.385 47.8115 129.8 48.8508C130.086 49.5669 130.359 50.6907 130.839 51.4888C131.68 52.8911 132.632 54.2461 132.473 55.7255C132.192 56.1258 130.078 56.367 129.559 56.367C128.771 56.367 127.724 56.3645 126.6 56.2874C123.756 56.0935 120.178 56.0462 116.923 55.4072C116.951 55.3799 116.976 55.355 117.003 55.3277C117.627 54.3356 121.118 53.3361 122.361 52.9284C123.037 52.7071 124.36 52.538 124.681 51.9687H124.201C123.823 51.7225 121.866 52.3292 121.481 52.4485C121.12 52.2223 120.054 52.8488 119.72 53.0079C119.604 53.0626 118.805 53.1745 118.522 53.3287C117.423 53.9229 115.106 54.9871 115.004 56.4465C115.158 56.5236 115.223 56.5584 115.325 56.6852C116.255 56.6081 117.9 56.9289 118.922 57.006C123.241 57.3267 132.98 57.6698 133.796 55.5664C133.967 55.1263 134.014 53.6171 133.716 53.0079L133.721 53.0104ZM127.244 44.6937C127.025 44.5172 126.814 44.4898 126.685 44.2138C126.125 43.3759 127.47 42.3615 127.803 42.0557C128.346 42.0433 128.664 42.1353 129.004 42.2969C128.89 43.0229 128.166 44.6663 127.244 44.6962V44.6937Z" fill="black"/>
<path fill-rule="evenodd" clip-rule="evenodd" d="M69.3079 44.5072C69.1513 44.1914 69.298 43.2889 69.2283 42.9085C69.0916 42.1601 68.7485 40.3898 68.0697 39.7906C67.3909 39.1914 65.4143 37.7145 63.6316 38.351C62.8484 38.6295 62.3363 39.2635 61.7917 39.7906C61.8191 39.9249 61.844 40.0567 61.8713 40.1909C62.4208 40.166 62.8534 40.0169 63.3109 39.9522C64.7306 39.7508 66.1901 40.631 66.4287 41.7921H66.3492C66.0782 41.5882 65.3944 41.531 65.1508 41.5534C64.8052 41.5261 64.4571 41.5012 64.1115 41.4739C63.3308 41.7101 62.2816 42.7742 62.0329 43.5524C61.8489 44.1218 62.1249 44.721 62.381 45.0044C63.0449 45.7379 67.2567 46.5783 69.3899 45.3127C69.8698 45.0293 70.5461 44.992 70.6704 44.353C70.2627 44.353 69.4123 44.629 69.3104 44.5121L69.3079 44.5072ZM67.0677 44.8254C66.752 44.8652 66.0359 44.7334 65.7699 44.6713C65.5038 44.6091 64.2557 43.6519 64.2681 42.7469C65.7922 42.6996 67.2393 43.5922 67.0677 44.8254Z" fill="black"/>
<path fill-rule="evenodd" clip-rule="evenodd" d="M43.0373 44.9721V44.813C42.7812 44.4947 43.0124 44.0298 42.8782 43.5325C42.6892 42.8413 42.5475 41.6877 42.0776 40.8125C41.093 38.9776 39.1338 37.0109 36.7195 38.0129C36.4535 38.0651 36.1875 38.1198 35.919 38.172C35.0661 38.6867 34.6584 39.547 33.9995 40.2506C34.0269 40.3302 34.0517 40.4097 34.0791 40.4893C34.2084 40.534 34.2705 40.5539 34.4794 40.5688C35.367 39.3754 38.6191 39.3331 39.1984 40.8075C39.3302 40.9517 39.3376 41.0089 39.3575 41.2874C38.4649 41.0288 36.5952 42.8737 36.5579 43.7663C36.2894 44.2212 36.6947 45.1685 37.1174 45.4445C38.5122 46.5435 42.4381 46.8916 44.3153 45.8448C44.5017 45.8175 44.6882 45.7926 44.8747 45.7653C45.0388 45.6708 45.72 45.0616 45.7548 44.8055C44.6634 44.8055 44.0567 45.0691 43.0348 44.9647L43.0373 44.9721ZM41.1179 44.5743C41.093 44.6141 41.1377 44.6141 40.8667 44.6762C40.5957 44.7409 39.4843 44.5867 39.2432 44.4749C38.7658 44.3132 38.3555 43.1024 38.639 42.9731C39.4172 42.7643 41.006 43.8582 41.1278 44.2312C41.175 44.3928 41.1452 44.532 41.1179 44.5718V44.5743Z" fill="black"/>
</svg>
