<svg width="160" height="80" viewBox="0 0 160 80" fill="none" xmlns="http://www.w3.org/2000/svg">
<path d="M48.3154 61.1164H109.06C112.081 61.1164 114.617 58.5795 114.617 55.5588V43.24C81.5785 42.6264 55.4542 56.8213 48.3154 61.1164Z" fill="black"/>
<path d="M51.7373 18.7793C48.7166 18.7793 46.1797 21.3162 46.1797 24.3369V58.9806C52.4807 55.0985 79.7496 39.7354 114.617 40.3726V18.7793H51.7373ZM81.4841 24.7499H83.2305L88.2099 36.8681H85.732L84.7172 34.3548H79.8558L78.782 36.8681H76.3277L81.4723 24.7499H81.4841ZM63.4543 24.7853H65.0355L68.2686 32.5494L71.6314 24.7853H73.2362L75.2067 36.8681H72.8704L71.7966 29.5523L68.5399 37.0333H67.9028L64.7523 29.5523L63.5605 36.8681H61.2242L63.4307 24.7853H63.4543ZM56.115 24.7971C57.4129 24.7971 58.6047 25.2455 59.6076 26.1187L58.3923 27.6998C57.7905 27.0272 57.2123 26.744 56.4689 26.744C55.7256 26.744 54.7934 27.334 54.7934 28.0656C54.7934 28.7972 55.2064 29.045 56.5869 29.5641C57.9085 30.0479 58.4159 30.3075 58.9587 30.7559C59.6548 31.3459 60.0088 32.1955 60.0088 33.2456C60.0088 35.5819 58.3333 37.1631 55.879 37.1631C53.4246 37.1631 52.8701 36.4551 51.8081 34.8976L53.3067 33.458C53.8376 34.4728 54.7344 35.0392 55.7964 35.0392C56.8583 35.0392 57.6253 34.3312 57.6253 33.3636C57.6253 32.396 57.4129 32.4786 56.9881 32.1719C56.7521 31.9949 56.3156 31.8179 55.3362 31.4639C53.2005 30.6969 52.4217 29.8237 52.4217 28.2544C52.4217 26.685 53.991 24.7971 56.1268 24.7971H56.115ZM82.3337 28.219L80.6109 32.4904H83.9974L82.3455 28.219H82.3337Z" fill="black"/>
</svg>
