<svg xmlns="http://www.w3.org/2000/svg" width="32" height="32" viewBox="0 0 46 46" fill="none">
  <style>
    /* Light system → ink squircle reads on pale browser chrome.
       Dark system → cream squircle reads on dark browser chrome.
       The bolt is a path-winding cutout, so it reveals the tab bg. */
    path { fill: #0A0A0A; }
    @media (prefers-color-scheme: dark) {
      path { fill: #F5F2E1; }
    }
  </style>
  <path fill-rule="evenodd" clip-rule="evenodd" d="M23.7227 0C33.8569 0 38.9239 0.000166884 42.0723 3.14844C45.2206 6.29677 45.2207 11.3638 45.2207 21.498V23.8691C45.2207 34.0036 45.2206 39.0714 42.0723 42.2197C38.9239 45.3679 33.8568 45.3682 23.7227 45.3682H21.498C11.3639 45.3682 6.29679 45.3679 3.14844 42.2197C7.31031e-05 39.0714 0 34.0036 0 23.8691V21.498C2.43139e-10 11.3638 0.000100771 6.29677 3.14844 3.14844C6.29678 0.000107517 11.3638 1.85236e-10 21.498 0H23.7227ZM27.2275 7.67578C27.541 6.21313 25.6892 5.31248 24.7422 6.4668L11.4863 22.6338C10.6453 23.66 11.5339 25.1827 12.8359 24.9463L18.9971 23.8281C20.0412 23.6386 20.9163 24.6237 20.6104 25.6445L16.6934 38.7109C16.2552 40.1724 18.0973 41.2124 19.1113 40.0762L33.9912 23.3945C34.8443 22.4378 34.1042 20.9238 32.8291 21.0176L26.125 21.5107C25.1794 21.5803 24.4323 20.7175 24.6318 19.7861L27.2275 7.67578Z"/>
</svg>
