<svg width="160" height="80" viewBox="0 0 160 80" fill="none" xmlns="http://www.w3.org/2000/svg">
<path fill-rule="evenodd" clip-rule="evenodd" d="M34.3179 49.1055H32V32.9122C32 31.7452 32.2398 30.8181 32.7193 30.1147C33.2309 29.3794 34.0781 29.0117 35.261 29.0117C36.444 29.0117 35.7566 29.0277 35.9804 29.0437C36.2042 29.0597 36.428 29.0916 36.6358 29.1236L36.9395 29.1716V31.3936L36.4919 31.2817C35.7406 31.0898 35.1811 31.1378 34.8774 31.3296C34.7016 31.4415 34.5897 31.5854 34.5097 31.7612C34.4138 31.969 34.3659 32.2088 34.3339 32.4806C34.3339 32.7683 34.3019 33.072 34.3019 33.3918V34.7186H36.9555V36.7647H34.3179V49.1055Z" fill="white"/>
<path fill-rule="evenodd" clip-rule="evenodd" d="M39.8026 40.5866H47.9232C47.8913 40.0911 47.8113 39.6275 47.6675 39.1799C47.4916 38.6364 47.2518 38.1728 46.9161 37.7732C46.5964 37.3895 46.1808 37.0698 45.6853 36.846C45.1897 36.6062 44.6142 36.4943 43.9748 36.4943C43.3354 36.4943 42.7599 36.6222 42.2803 36.846C41.7848 37.0858 41.3692 37.4055 41.0175 37.8052C40.6658 38.2048 40.3781 38.6844 40.1703 39.2279C40.0104 39.6755 39.8825 40.1231 39.8026 40.5866ZM43.9748 49.4746C42.8398 49.4746 41.8328 49.2828 41.0015 48.8831C40.1543 48.4995 39.4669 47.94 38.9234 47.2686C38.3799 46.5972 37.9802 45.7819 37.7245 44.8708C37.4687 43.9756 37.3408 43.0004 37.3408 41.9614C37.3408 40.9223 37.5007 39.9312 37.7884 39.0201C38.0921 38.0929 38.5237 37.2776 39.0992 36.5903C39.6587 35.8869 40.3621 35.3434 41.1933 34.9278C42.0086 34.5281 42.9517 34.3203 43.9908 34.3203C45.973 34.3203 47.5556 35.0237 48.7065 36.3984C49.8255 37.7572 50.385 39.7234 50.369 42.2651V42.6328H39.7546C39.7866 43.2083 39.8665 43.7518 40.0264 44.2633C40.2022 44.8708 40.474 45.4143 40.8257 45.8619C41.1614 46.2935 41.609 46.6611 42.1365 46.9169C42.664 47.1727 43.2874 47.3165 43.9748 47.3165C44.6622 47.3165 45.7492 47.0608 46.4206 46.5652C47.092 46.0697 47.5396 45.3823 47.7634 44.4551L47.8273 44.1834H50.369L50.2251 44.647C50.0173 45.3184 49.7616 45.9578 49.4259 46.5333C49.0902 47.1247 48.6586 47.6363 48.163 48.0838C47.6515 48.5314 47.044 48.8671 46.3567 49.1229C45.6693 49.3467 44.87 49.4746 43.9748 49.4746Z" fill="white"/>
<path fill-rule="evenodd" clip-rule="evenodd" d="M53.8682 49.1066H51.5503V34.7036H53.8682V36.2382C54.2199 35.7107 54.6195 35.327 55.0671 35.0393C55.8184 34.5757 56.8095 34.3359 58.0244 34.3359H58.3921V36.7977H57.8806C57.1133 36.7817 56.4738 36.9096 55.9783 37.1654C55.4508 37.4371 55.0351 37.8048 54.7314 38.2524C54.4117 38.716 54.2039 39.2755 54.076 39.9309C53.9481 40.6023 53.8842 41.3056 53.8842 42.041V49.1066" fill="white"/>
<path fill-rule="evenodd" clip-rule="evenodd" d="M62.1651 49.1066H59.8472V34.7036H62.1651V36.2382C62.5168 35.7107 62.9164 35.327 63.364 35.0393C64.1153 34.5757 65.1064 34.3359 66.3213 34.3359H66.689V36.7977H66.1774C65.4101 36.7817 64.7707 36.9096 64.2752 37.1654C63.7476 37.4371 63.332 37.8048 63.0283 38.2524C62.7086 38.716 62.5008 39.2755 62.3729 39.9309C62.245 40.6023 62.1811 41.3056 62.1811 42.041V49.1066" fill="white"/>
<path fill-rule="evenodd" clip-rule="evenodd" d="M73.293 36.4936C72.5257 36.4936 71.8863 36.6375 71.3428 36.9412C70.8153 37.229 70.3677 37.6286 70.032 38.1241C69.6963 38.6197 69.4245 39.2112 69.2647 39.8506C69.1048 40.506 69.0089 41.2094 69.0089 41.9127C69.0089 42.6161 69.1048 43.4633 69.2966 44.1507C69.4885 44.8221 69.7602 45.3976 70.1119 45.8611C70.4636 46.3247 70.9112 46.6764 71.4227 46.9322C71.9502 47.1879 72.5737 47.3158 73.2611 47.3158C73.9484 47.3158 74.6678 47.172 75.2113 46.8682C75.7548 46.5805 76.1864 46.1649 76.5221 45.6853C76.8738 45.1738 77.1295 44.5983 77.2894 43.9589C77.4493 43.3035 77.5452 42.6161 77.5452 41.9127C77.5452 41.2094 77.4652 40.4101 77.2894 39.7387C77.1295 39.0833 76.8738 38.5078 76.5221 38.0282C76.1864 37.5647 75.7548 37.181 75.2273 36.9092C74.7317 36.6375 74.0603 36.4936 73.293 36.4936ZM73.293 49.4739C72.3659 49.4579 71.4867 49.282 70.6874 48.9783C69.8721 48.6586 69.1528 48.179 68.5453 47.5396C67.9379 46.9162 67.4583 46.1169 67.1066 45.1738C66.7549 44.2466 66.5791 43.1436 66.5791 41.9127C66.5791 40.6818 66.723 39.8985 66.9947 39.0034C67.2665 38.0922 67.6981 37.2769 68.2416 36.6055C68.8011 35.9181 69.5045 35.3587 70.3517 34.959C71.1829 34.5594 72.174 34.3516 73.277 34.3516C74.38 34.3516 75.3871 34.5594 76.2344 34.959C77.0656 35.3587 77.785 35.9022 78.3444 36.5895C78.9039 37.2609 79.3196 38.0762 79.5913 39.0034C79.8471 39.9145 79.991 40.8896 79.991 41.9287C79.991 42.9678 79.8311 44.0867 79.5274 44.9979C79.2077 45.9251 78.7601 46.7244 78.1846 47.3958C77.5931 48.0671 76.8738 48.5947 76.0585 48.9463C75.2113 49.298 74.2841 49.4739 73.293 49.4739Z" fill="white"/>
<path fill-rule="evenodd" clip-rule="evenodd" d="M112.152 48.6898H113.639V40.1056C113.639 39.4342 113.591 38.7628 113.495 38.1074C113.399 37.468 113.207 36.8925 112.903 36.397C112.616 35.9014 112.184 35.5018 111.641 35.198C111.097 34.8943 110.346 34.7345 109.435 34.7345C108.523 34.7345 107.58 34.9423 106.829 35.3739C106.078 35.8055 105.47 36.4609 105.007 37.3401L104.959 37.436L104.927 37.3401C104.783 36.9724 104.607 36.6367 104.415 36.317C104.223 36.0133 103.968 35.7256 103.664 35.5018C103.36 35.262 102.992 35.0861 102.561 34.9423C102.129 34.7984 101.586 34.7345 100.962 34.7345C100.339 34.7345 99.2518 34.9423 98.5005 35.3579C97.7492 35.7575 97.1737 36.365 96.7741 37.1483H96.7581C96.7581 37.1643 96.6302 37.1643 96.6302 37.1643V35.1021H95.1436V48.6898H96.6302V41.3844C96.6302 41.0967 96.6462 40.793 96.6622 40.4573C96.6942 40.1216 96.7421 39.7859 96.806 39.4502C96.87 39.1145 96.9659 38.7948 97.0778 38.4751C97.1897 38.1714 97.3496 37.8836 97.5254 37.6598C97.925 37.1323 98.4046 36.7327 98.9481 36.4769C99.4916 36.2211 100.051 36.0932 100.643 36.0932C101.778 36.0932 102.561 36.381 102.992 36.9565C103.408 37.5159 103.616 38.3152 103.616 39.3063V48.6898H105.103V41.3844C105.103 41.0967 105.119 40.793 105.135 40.4573C105.166 40.1216 105.214 39.7859 105.278 39.4502C105.342 39.1145 105.438 38.7948 105.55 38.4751C105.662 38.1714 105.822 37.8836 105.998 37.6598C106.413 37.1323 106.877 36.7327 107.42 36.4769C107.964 36.2211 108.523 36.0932 109.115 36.0932C110.25 36.0932 111.033 36.381 111.465 36.9565C111.88 37.5159 112.088 38.3152 112.088 39.3063V48.6898" fill="white"/>
<path fill-rule="evenodd" clip-rule="evenodd" d="M121.6 47.7299C120.881 47.7299 120.21 47.57 119.634 47.2663C119.059 46.9626 118.563 46.531 118.163 46.0194C117.764 45.4919 117.46 44.8845 117.252 44.1811C117.044 43.4777 116.933 42.7424 116.933 41.9591C116.933 41.1758 117.029 40.3446 117.236 39.6412C117.444 38.9219 117.732 38.2984 118.131 37.7869C118.515 37.2594 119.011 36.8437 119.602 36.556C120.194 36.2523 120.865 36.1084 121.6 36.1084C122.336 36.1084 122.895 36.2363 123.471 36.4761C124.03 36.7159 124.542 37.0675 124.957 37.5311C125.373 37.9947 125.725 38.5542 125.948 39.2256C126.188 39.881 126.3 40.6643 126.3 41.5275C126.332 42.3907 126.268 43.206 126.092 43.9573C125.916 44.7086 125.629 45.38 125.245 45.9395C124.861 46.499 124.35 46.9626 123.742 47.2823C123.135 47.554 122.416 47.7299 121.6 47.7299ZM115.462 54.0761H116.949V46.3871L117.029 46.531C117.524 47.3622 118.227 48.0016 119.107 48.4332C119.986 48.8649 120.913 49.0727 121.872 49.0727C122.831 49.0727 123.806 48.8808 124.558 48.4812C125.309 48.0976 125.948 47.554 126.444 46.9146C126.94 46.2592 127.307 45.4919 127.563 44.6287C127.803 43.7495 127.931 42.8383 127.931 41.8952C127.931 40.952 127.819 39.9609 127.595 39.0817C127.371 38.2185 127.003 37.4512 126.508 36.8118C126.012 36.1724 125.373 35.6768 124.606 35.3091C123.838 34.9415 122.895 34.7656 121.808 34.7656C120.721 34.7656 120.929 34.8296 120.481 34.9415C120.034 35.0694 119.586 35.2452 119.155 35.469C118.723 35.6928 118.339 35.9805 117.972 36.3322C117.62 36.6839 117.316 37.0675 117.092 37.4992V37.5311H116.949V35.1333H115.462V54.0761Z" fill="white"/>
<path fill-rule="evenodd" clip-rule="evenodd" d="M90.4601 43.7019C90.4601 44.3893 90.3162 44.9807 90.0445 45.4763C89.7567 45.9718 89.3891 46.3875 88.9255 46.7232C88.4619 47.0429 87.9344 47.2827 87.3269 47.4425C86.7355 47.6024 86.112 47.6823 85.4886 47.6823C84.8652 47.6823 84.7533 47.6343 84.4016 47.5384C84.0339 47.4425 83.7302 47.2986 83.4584 47.0908C83.1867 46.883 82.9629 46.6272 82.803 46.3235C82.6432 46.0198 82.5473 45.6521 82.5473 45.2205C82.5473 44.2934 82.883 43.59 83.5703 43.1424C84.2417 42.6788 85.2009 42.4071 86.3998 42.3271C87.0871 42.2792 87.7745 42.1993 88.4619 42.1193C89.1493 42.0234 89.8207 41.8476 90.4921 41.5598V43.7019M92.3464 47.6024C92.1066 47.4265 91.9947 47.0269 91.9947 46.3875V38.9542C91.9947 38.1709 91.8668 37.4995 91.6111 36.972C91.3553 36.4445 91.0036 35.9969 90.572 35.6772C90.1244 35.3575 89.5969 35.1177 89.0054 34.9738C88.398 34.8299 87.7585 34.75 87.0712 34.75C86.3838 34.75 85.6325 34.8299 84.993 35.0058C84.3376 35.1656 83.7622 35.4374 83.2666 35.7891C82.7711 36.1407 82.3714 36.6043 82.0517 37.1638C81.748 37.7233 81.5562 38.3947 81.5082 39.162H83.0268C83.1068 38.5705 83.2506 38.091 83.4584 37.6913C83.6822 37.2917 83.97 36.972 84.3217 36.7322C84.6733 36.4924 85.073 36.3166 85.5366 36.2207C86.0001 36.1248 86.5117 36.0768 87.0552 36.0768C88.2861 36.0768 89.1813 36.3486 89.7088 36.8601C90.2363 37.3876 90.5081 38.075 90.5081 38.8903C90.5081 39.7055 90.4761 39.4178 90.4121 39.7055C90.3482 40.0092 90.1724 40.233 89.9006 40.3609C89.6288 40.4888 89.2932 40.5847 88.8775 40.6487C88.4619 40.7126 88.1102 40.7765 87.8065 40.8085L85.6165 41.0963C82.4673 41.5119 80.8848 42.8866 80.8848 45.1726C80.8848 47.4585 81.0127 46.4034 81.2524 46.883C81.4922 47.3626 81.8279 47.7622 82.2435 48.0979C82.6592 48.4336 83.1387 48.6734 83.6982 48.8332C84.2417 48.9931 84.8172 49.073 85.4087 49.073C86.3998 49.073 87.3269 48.8812 88.1902 48.4975C89.0374 48.1139 89.8047 47.5544 90.4761 46.8191L90.556 46.7391V46.851C90.556 47.0908 90.572 47.3306 90.604 47.5384C90.6359 47.7462 90.6999 47.954 90.7958 48.1299C90.8917 48.3057 91.0036 48.4656 91.1635 48.5935C91.3073 48.7213 91.5151 48.8013 91.7709 48.8332C92.2025 48.9292 92.6821 48.9451 93.1616 48.8013C93.3695 48.7373 93.5453 48.6894 93.6732 48.6574V47.5224C93.0018 47.7462 92.5702 47.7782 92.3464 47.6024Z" fill="white"/>
</svg>
