<svg width="160" height="80" viewBox="0 0 160 80" fill="none" xmlns="http://www.w3.org/2000/svg">
<g clip-path="url(#clip0_7_149)">
<path d="M74.1793 39.0907H69.4516C69.4516 39.0907 69.3599 39.0615 69.214 39.0699C68.9888 39.0949 68.6386 39.2283 68.3885 39.8078L67.1586 42.8053C67.1586 42.8053 66.8293 43.3723 67.6547 43.3723H72.0489C72.0489 43.3723 72.6159 43.4849 72.8744 42.9887C73.1245 42.4926 74.3961 39.6577 74.3961 39.6577C74.3961 39.6577 74.6337 39.0907 74.1793 39.0907Z" fill="white"/>
<path d="M80.1134 26C51.3554 26 28.0381 32.4745 28.0381 40.4665C28.0381 48.4585 51.3554 54.933 80.1134 54.933C108.871 54.933 132.189 48.4585 132.189 40.4665C132.189 32.4745 108.871 26 80.1134 26ZM95.5388 33.3H98.5196L97.4732 35.7305H94.5048L95.5388 33.3ZM47.8785 39.9537C47.3907 40.9668 45.2436 45.7528 45.2436 45.7528H38.1855L43.155 34.2839C43.155 34.2839 44.0221 32.1118 45.8732 32.1118H58.1468L57.0837 34.5298H46.7945C46.7945 34.5298 46.3193 34.4464 46.0274 35.0051C45.7398 35.5637 42.242 43.3807 42.242 43.3807H43.2675L45.4396 38.7072C45.4396 38.7072 46.2984 36.6477 48.1786 36.6477H56.1081L55.0617 39.0449L48.9416 39.0741C48.9416 39.0741 48.4246 38.8156 47.8785 39.9537ZM58.4261 39.6244L55.6537 45.757H52.577C52.577 45.7612 55.7329 38.7489 55.7329 38.7489C55.7329 38.7489 56.5792 36.6393 58.5678 36.6393H66.2931L65.1674 39.0782H59.3683C59.3683 39.0782 58.768 38.924 58.4261 39.6244ZM72.755 45.7612H64.9798C62.6118 45.7612 63.4373 44.1603 63.4373 44.1603L65.8761 38.7405C65.8761 38.7405 66.5891 36.631 68.5735 36.631C68.5735 36.6268 77.2784 36.6268 77.2784 36.6268C78.8001 36.6268 77.9622 38.4487 77.9622 38.4487C77.9622 38.4487 76.3279 42.0049 75.4274 43.981C74.5394 45.9488 72.7509 45.7612 72.7509 45.7612H72.755ZM85.1746 45.7612L87.997 39.566C87.997 39.566 88.2763 39.0782 87.3758 39.0782H82.3897L79.2962 45.757H76.3196L80.3844 36.631H90.2608C90.2608 36.631 92.4328 36.4851 91.5115 38.6071C90.6735 40.5207 88.2763 45.7612 88.2763 45.7612H85.1746ZM89.9606 45.7695L94.0671 36.6393H97.0146L92.9415 45.7695H89.9648H89.9606ZM104.869 45.7653H96.5977C94.4131 45.7653 95.4595 43.7475 95.4595 43.7475L98.5613 36.6519H101.634L99.0157 42.6094C98.653 43.4265 99.3159 43.4265 99.3159 43.4265H103.981C104.686 43.4265 104.861 42.6594 104.861 42.6594L107.496 36.6519H110.597C110.597 36.6519 108.479 41.6672 107.537 43.7767C106.595 45.8862 104.869 45.7612 104.869 45.7612V45.7653ZM123.113 39.0449H115.037C113.366 39.0449 113.632 40.0913 113.632 40.0913H120.953C122.4 40.0913 121.966 41.5713 121.966 41.5713C121.966 41.5713 121.695 42.3676 120.982 43.9101C120.103 45.8112 118.531 45.7612 118.531 45.7612H107.921V45.7528C107.917 45.7528 108.9 43.3848 108.9 43.3848H117.214C118.231 43.3848 118.498 42.3509 118.498 42.3509H111.177C109.451 42.3509 110.072 40.6875 110.072 40.6875C110.072 40.6875 110.714 39.4368 111.323 38.0818C111.965 36.6644 113.816 36.6352 113.816 36.6352H124.217L123.113 39.0449Z" fill="white"/>
</g>
<defs>
<clipPath id="clip0_7_149">
<rect width="104.226" height="28.933" fill="white" transform="translate(28 26)"/>
</clipPath>
</defs>
</svg>
