<svg width="160" height="80" viewBox="0 0 160 80" fill="none" xmlns="http://www.w3.org/2000/svg">
<path d="M69.7689 57.652V62.5363C69.7689 63.91 69.0566 64.6732 67.8355 64.6732C66.6145 64.6732 65.9022 63.91 65.9022 62.4854V57.652H64.1723V62.5363C64.1723 64.9276 65.4952 66.3013 67.8355 66.3013C70.1759 66.3013 71.5496 64.8767 71.5496 62.4346V57.6012H69.8198L69.7689 57.652ZM76.1286 57.652L72.3637 66.1995H74.1444L74.8567 64.5714V64.4697H78.8251L79.5883 66.2504H81.4199L77.7058 57.7538H76.1795L76.1286 57.652ZM86.4059 57.652L84.4726 63.503L82.5901 57.652H80.7585L83.7094 66.1995H85.134L87.0673 60.603L89.0007 66.1995H90.4253L93.3762 57.652H91.5955L89.713 63.503L87.7796 57.652H86.3551H86.4059ZM103.348 57.652V66.1486H105.078V57.652H103.348ZM54.4038 57.652V66.1995H56.1337V62.7398H60.0512V66.1995H61.7811V57.652H60.0512V61.1117H56.1337V57.652H54.4038ZM94.8516 57.652V66.1486H101.313V64.5714H96.5815V62.4346H99.7359V60.8573H96.5815V59.1275H101.16V57.5503H94.9025L94.8516 57.652ZM76.8918 59.7889L78.1129 62.6381L78.2146 62.8416H75.6198L75.7216 62.6381L76.9427 59.7889H76.8918Z" fill="white"/>
<path d="M75.9245 14.0509C75.2631 14.1018 73.3806 14.5088 73.3806 14.5088C69.2087 15.5772 68.1911 19.393 68.1911 19.393C67.9876 20.0545 67.8858 20.665 67.8858 21.2755V22.0896C67.9367 23.3615 68.242 24.3282 68.242 24.3282C69.6157 30.5353 76.4842 40.7108 77.9596 42.8477C78.0614 42.9495 78.1632 42.8986 78.1632 42.8986C78.3158 42.8986 78.3158 42.6951 78.3158 42.6951C80.6053 20.0545 75.9245 14.0509 75.9245 14.0509ZM83.4545 14.0509C83.4545 14.0509 78.7737 20.0545 81.0632 42.7968C81.0632 42.9495 81.165 42.9495 81.165 42.9495C81.3176 43.0003 81.4193 42.8477 81.4193 42.8477C82.9457 40.66 89.7633 30.5353 91.137 24.3791C91.137 24.3791 91.9002 21.3773 91.137 19.393C91.137 19.393 90.1194 15.5263 85.8966 14.5088C85.8966 14.5088 84.6755 14.2035 83.4036 14L83.4545 14.0509ZM61.8823 20.8685C61.8823 20.8685 57.9138 24.6335 57.7103 28.6528V29.2633C57.7103 29.2633 57.7103 29.3651 57.7103 29.416C57.8629 32.6721 60.3051 34.5546 60.3051 34.5546C64.2226 38.3705 73.6859 43.2038 75.9245 44.2723C75.9245 44.2723 76.0772 44.2723 76.128 44.2723C76.128 44.2723 76.128 44.2723 76.128 44.2214V44.1196C70.1245 30.8914 61.8823 20.8685 61.8823 20.8685ZM97.4967 20.8685C97.4967 20.8685 89.2545 30.8405 83.2509 44.0179C83.2509 44.0179 83.2001 44.1705 83.2509 44.2723C83.2509 44.2723 83.2509 44.2723 83.3527 44.2723H83.4545C85.744 43.153 95.1563 38.3705 99.0231 34.5546C99.0231 34.5546 101.516 32.5704 101.618 29.3651C101.923 24.9387 97.4458 20.8685 97.4458 20.8685H97.4967ZM104.925 33.9441C104.925 33.9441 91.4931 41.1687 84.5738 45.8495C84.5738 45.8495 84.472 45.9512 84.472 46.1039C84.472 46.1039 84.5229 46.2056 84.6246 46.2056C87.1177 46.2056 96.53 46.2056 96.7336 46.2056C96.7336 46.2056 97.9546 46.2056 99.4301 45.5951C99.4301 45.5951 102.788 44.5267 104.518 40.7108C104.518 40.7108 105.332 39.1336 105.332 36.895V36.7932C105.332 35.9283 105.23 34.9616 104.874 33.995L104.925 33.9441ZM54.4541 33.995C53.233 37.7599 54.8611 40.8126 54.8611 40.8126C56.591 44.4249 59.8472 45.5442 59.8472 45.5442C61.3735 46.1548 62.8489 46.2056 62.8489 46.2056C63.1033 46.2056 72.2613 46.2056 74.7035 46.2056C74.8052 46.2056 74.8561 46.1039 74.8561 46.1039V46.0021C74.8561 45.9512 74.8052 45.9004 74.8052 45.9004C67.8858 41.1687 54.4541 33.995 54.4541 33.995ZM74.4491 47.3758L58.677 47.9355C60.4068 50.9881 63.256 53.3794 66.2578 52.6162C68.3437 52.1075 73.0245 48.8004 74.6017 47.732C74.7035 47.6302 74.7035 47.5285 74.7035 47.5285C74.7035 47.3758 74.5 47.3758 74.5 47.3758H74.4491ZM84.879 47.3758C84.879 47.3758 84.7264 47.3758 84.7264 47.5285C84.7264 47.5285 84.7264 47.6811 84.7773 47.732C86.3036 48.8004 90.8826 52.0057 93.0704 52.6671C93.0704 52.6671 93.4265 52.7689 93.9861 52.8197H94.3423C95.8178 52.7689 98.4125 52.0057 100.753 47.9864L84.9299 47.4267L84.879 47.3758Z" fill="white"/>
</svg>
