<svg width="160" height="80" viewBox="0 0 160 80" fill="none" xmlns="http://www.w3.org/2000/svg">
<g clip-path="url(#clip0_10_496)">
<path d="M126.997 30.5936H121.034V36.9961H126.997V30.5936Z" fill="white"/>
<path d="M52.7859 30.5936V43.2463L41.6806 30.5936H33V49.4126H39.1666V36.5175L50.515 49.4126H58.9525V30.5936H52.7859Z" fill="white"/>
<path d="M126.997 39.0505H121.034V49.4095H126.997V39.0505Z" fill="white"/>
<path d="M84.3602 43.8617C86.6434 42.5936 87.7851 40.474 87.7851 37.5089C87.7851 36.5796 87.6651 35.7498 87.4281 35.0163C87.1881 34.2828 86.8865 33.6799 86.5265 33.2075C86.1634 32.735 85.7172 32.3217 85.1849 31.9736C84.6525 31.6255 84.1541 31.3675 83.6863 31.1966C83.2186 31.0256 82.6955 30.892 82.1201 30.7956C81.5447 30.6962 81.0985 30.6402 80.7785 30.6216C80.4615 30.603 80.123 30.5936 79.7692 30.5936H62.0603V49.4126H68.2022V36.0886H79.0768C80.6861 36.0886 81.4923 36.6263 81.4923 37.6985C81.4923 38.8765 80.7231 39.467 79.1845 39.467H73.0549V44.9681L79.0983 49.4126H87.9666L81.1631 44.7413C82.2493 44.5859 83.4002 44.3186 84.3602 43.8617Z" fill="white"/>
<path d="M118.061 39.4701C118.058 39.3054 118.045 39.0536 118.045 39.0536H105.377L105.254 39.4514L105.238 39.5012L104.364 42.5936H111.423C111.276 43.1375 110.38 44.4957 105.121 44.6822C104.7 44.704 104.26 44.7164 103.798 44.7164C102.74 44.7164 101.801 44.6418 100.989 44.4926C97.3117 43.871 96.5517 41.9627 96.5517 39.899C96.5517 37.3815 97.8256 35.2743 103.848 35.2836C107.245 35.2898 108.534 35.7125 109.088 35.9549C109.768 36.2533 110.066 36.474 110.343 36.9992H117.922C117.802 36.359 117.618 35.7622 117.362 35.2183C116.879 34.1834 116.094 33.2603 115.03 32.4709C113.959 31.6783 112.473 31.0629 110.611 30.6402C108.743 30.2145 106.469 30 103.863 30C101.534 30 99.4903 30.1834 97.7948 30.5408C96.1116 30.8982 94.6531 31.4794 93.4622 32.2751C92.2806 33.0614 91.3852 34.1243 90.7944 35.4297C90.2005 36.7444 89.8989 38.3512 89.8989 40.2067C89.8989 41.9316 90.1359 43.4017 90.6036 44.5765C91.0682 45.742 91.8467 46.749 92.9207 47.5727C94.0007 48.4025 95.4593 49.0179 97.2594 49.4002C99.0718 49.7887 101.355 50 104.044 50H104.048C106.242 50 108.196 49.8353 109.851 49.5431C111.503 49.251 112.86 48.8563 113.888 48.3683C114.907 47.8866 115.747 47.2743 116.384 46.5532C117.021 45.8322 117.47 45.08 117.719 44.3155C117.882 43.812 118.036 42.8329 118.082 41.9938C118.122 41.2168 118.067 39.6908 118.061 39.4701Z" fill="white"/>
</g>
<defs>
<clipPath id="clip0_10_496">
<rect width="94" height="20" fill="white" transform="translate(33 30)"/>
</clipPath>
</defs>
</svg>
