<svg width="160" height="80" viewBox="0 0 160 80" fill="none" xmlns="http://www.w3.org/2000/svg">
<path d="M55.9635 44.0237H49.1764V41.8593H43V56.9983H49.1764V49.7691H56.3201C61.8521 49.7691 66.2248 46.6897 67.2425 41.8632H60.6732C59.9062 43.2696 58.2738 44.0237 55.9635 44.0237Z" fill="white"/>
<path d="M72.6413 23C72.203 22.9985 71.7687 23.0834 71.3641 23.2498C70.9594 23.4163 70.5925 23.6608 70.2848 23.9692C69.9772 24.2776 69.735 24.6435 69.5725 25.0456C69.41 25.4477 69.3304 25.8777 69.3384 26.3106C69.3498 27.1745 69.7053 27.9993 70.3279 28.6063C70.9505 29.2133 71.7902 29.5536 72.6651 29.5536C73.54 29.5536 74.3797 29.2133 75.0023 28.6063C75.6249 27.9993 75.9804 27.1745 75.9918 26.3106C75.9984 25.8741 75.9163 25.4408 75.7503 25.0363C75.5843 24.6318 75.3378 24.2643 75.0253 23.9556C74.7129 23.6469 74.3409 23.4033 73.9314 23.2391C73.5219 23.075 73.0832 22.9937 72.6413 23Z" fill="white"/>
<path d="M75.89 41.8609H69.7539V57H75.89V41.8609Z" fill="white"/>
<path d="M85.4004 45.9256L76.4272 57H83.7792L89.1075 50.3756L94.3366 57H101.906L92.9886 46.2435L96.5888 41.8609H81.9397L85.4004 45.9256Z" fill="white"/>
<path d="M105.33 23C104.892 22.9984 104.458 23.0834 104.053 23.2498C103.649 23.4162 103.282 23.6607 102.974 23.969C102.666 24.2773 102.424 24.6432 102.262 25.0452C102.099 25.4472 102.019 25.8772 102.027 26.31C102.039 27.1741 102.394 27.999 103.017 28.6061C103.64 29.2132 104.48 29.5536 105.355 29.5536C106.23 29.5536 107.069 29.2132 107.692 28.6061C108.315 27.999 108.671 27.1741 108.682 26.31C108.688 25.8735 108.606 25.4402 108.44 25.0357C108.274 24.6312 108.027 24.2637 107.715 23.955C107.402 23.6464 107.03 23.4028 106.621 23.2387C106.211 23.0747 105.772 22.9935 105.33 23Z" fill="white"/>
<path d="M108.579 41.8609H102.443V57H108.579V41.8609Z" fill="white"/>
</svg>
