<svg width="192" height="80" viewBox="0 0 192 80" fill="none" xmlns="http://www.w3.org/2000/svg">
<path d="M144.168 39.3888C144.168 35.9743 143.649 34.6032 140.327 34.6032C137.674 34.6032 136.912 35.3652 136.912 39.3888C136.912 43.0166 136.912 45.1202 140.327 45.1202C144.168 45.1202 144.168 43.1992 144.168 39.3888ZM106.58 34.6032C103.257 34.6032 103.044 35.304 103.044 38.1391H110.208C110.208 34.847 109.72 34.6032 106.58 34.6032ZM127.127 39.3888C127.127 35.9743 126.67 34.6032 123.347 34.6032C120.694 34.6032 119.932 35.3652 119.932 39.3888C119.932 43.0166 119.841 45.1202 123.347 45.1202C127.28 45.1202 127.127 43.1992 127.127 39.3888ZM167.103 25.0318H131.029V47.8635H127.188L127.34 45.4548H127.218C126.243 47.5585 124.475 48.0461 122.218 48.0461C116.275 48.0461 116.091 44.2969 116.091 39.3888C116.091 34.6939 116.732 31.6762 122.218 31.6762C124.17 31.6762 126.212 32.0425 127.036 33.9931H127.188V25.0318H107.127C107.127 25.0318 104.912 25.0318 104.188 27.1249L102.408 32.2726C103.444 31.8747 104.794 31.6762 106.58 31.6762C113.165 31.6762 114.049 33.5973 114.049 40.5773H103.044C103.044 44.0225 103.136 45.1202 106.58 45.1202C108.714 45.1202 110.208 45.1509 110.208 42.7728H114.049C114.049 47.8023 111.154 48.0461 106.58 48.0461C100.992 48.0461 99.4648 46.4122 99.2389 41.4323L95.5077 52.2196C95.5077 52.2196 94.7836 54.3137 96.9981 54.3137H136C134.492 53.6203 133.603 52.2312 133.742 49.5101H137.34C137.34 51.7045 138.162 52.0402 140.327 52.0402C143.588 52.0402 144.29 51.3689 144.29 48.6256V45.5773H144.198C143.192 47.6809 141.15 48.0461 139.198 48.0461C133.712 48.0461 133.071 45.0284 133.071 40.3335C133.071 35.4254 133.254 31.6762 139.198 31.6762C141.455 31.6762 143.223 32.1639 144.198 34.2675H144.32L144.168 31.8588H148.009V47.8329C148.009 51.5588 147.235 53.4429 145.111 54.3137H156.974C156.974 54.3137 159.19 54.3137 159.914 52.2196L161.45 47.7801C160.332 48.0134 158.98 48.0461 157.428 48.0461C151.301 48.0461 150.051 46.0955 150.051 39.9071C150.051 34.1757 150.966 31.6762 157.428 31.6762C163.113 31.6762 164.546 33.1159 164.832 37.9998L168.594 27.1249C168.594 27.1249 169.318 25.0318 167.103 25.0318ZM153.892 38.1391H161.056C161.056 34.847 160.568 34.6032 157.428 34.6032C154.105 34.6032 153.892 35.304 153.892 38.1391ZM161.056 42.7728H163.182L163.941 40.5773H153.892C153.892 44.0225 153.984 45.1202 157.428 45.1202C159.562 45.1202 161.056 45.1509 161.056 42.7728Z" fill="white"/>
<path d="M38.1755 36.2179C38.1755 31.7363 34.4263 31.6761 31.2862 31.6761C27.1707 31.6761 24 31.7669 24 36.1567C24 40.2415 25.0671 41.0342 30.9505 41.1261C34.8221 41.1873 34.914 41.8881 34.914 43.2899C34.914 45.4853 33.5724 45.4241 31.2862 45.4241C28.4511 45.4241 27.9022 45.1497 27.841 42.8328H24C24 48.046 26.9269 48.046 31.2862 48.046C35.3404 48.046 38.755 47.6196 38.755 43.2899C38.755 38.1084 35.4016 38.3828 31.6208 38.1991C28.2685 38.0471 27.841 37.9859 27.841 36.4006C27.841 34.2969 29.2438 34.2969 31.2862 34.2969C33.3286 34.2969 34.3345 34.2969 34.3345 36.2179H38.1755ZM48.5701 31.6761C41.894 31.6761 41.0412 33.6573 41.0412 39.8763C41.0412 46.0648 41.894 48.046 48.5701 48.046C55.2462 48.046 56.1001 46.0648 56.1001 39.8763C56.1001 33.6573 55.2462 31.6761 48.5701 31.6761ZM48.5701 34.602C51.9847 34.602 52.2591 35.5773 52.2591 39.907C52.2591 44.1744 51.9847 45.1191 48.5701 45.1191C45.1566 45.1191 44.8822 44.1744 44.8822 39.907C44.8822 35.5773 45.1566 34.602 48.5701 34.602ZM63.2027 25H59.3617V47.8634H63.2027V25ZM73.781 40.669C75.6703 40.669 77.3169 40.7292 77.3169 42.9553C77.3169 45.2415 75.8234 45.4241 73.781 45.4241C71.1897 45.4241 70.2746 45.2109 70.2746 42.9553C70.2746 40.669 71.8293 40.669 73.781 40.669ZM77.3169 47.8634H81.1579V37.8339C81.1579 32.4688 79.0237 31.6761 73.9023 31.6761C70.245 31.6761 67.0436 31.8587 67.0436 36.523H70.8846C70.8846 34.45 72.2262 34.2969 73.9023 34.2969C77.1037 34.2969 77.3169 35.212 77.3169 37.8033V39.8763H77.1945C76.2804 38.0778 74.3594 38.0471 72.4088 38.0471C68.4454 38.0471 66.4336 39.1143 66.4336 42.9553C66.4336 47.2839 68.781 48.046 72.4088 48.046C74.2686 48.046 76.6161 47.9848 77.3781 45.8505H77.4689L77.3169 47.8634ZM84.6939 31.8587V47.8634H88.5349V37.9859C88.4736 35.9129 89.1449 34.602 91.4312 34.602C93.2298 34.602 93.3818 35.5477 93.3818 37.1626V37.9859H96.9789V36.7056C96.9789 33.6879 96.1556 31.6761 92.7727 31.6761C90.9129 31.6761 89.2663 32.1943 88.5043 33.9623H88.3523L88.443 31.8587H84.6939Z" fill="white"/>
</svg>
