<svg width="160" height="80" viewBox="0 0 160 80" fill="none" xmlns="http://www.w3.org/2000/svg">
<g clip-path="url(#clip0_7_98)">
<mask id="mask0_7_98" style="mask-type:luminance" maskUnits="userSpaceOnUse" x="-722" y="-89" width="952" height="1347">
<path d="M229.867 -88.1666H-721.999V1257.22H229.867V-88.1666Z" fill="white"/>
</mask>
<g mask="url(#mask0_7_98)">
<path fill-rule="evenodd" clip-rule="evenodd" d="M122.856 33.5753V35.2482C122.856 35.6545 122.696 36.0528 122.298 36.2918C121.764 36.6105 121.183 36.8734 120.537 37.0885V34.5312C120.537 34.5312 120.537 34.0533 115.423 34.0533C110.308 34.0533 110.308 34.5312 110.308 34.5312V38.6897C110.308 39.1677 110.149 39.5661 109.751 39.805C109.217 40.1237 108.635 40.3866 107.99 40.6017V33.5753C108.715 31.8943 114.308 32.0537 115.423 32.0537C116.538 32.0537 122.139 31.8943 122.856 33.5753ZM121.183 38.2038C121.716 37.8851 122.274 37.6222 122.856 37.4071V44.5212C122.139 46.1145 116.546 46.0348 115.423 46.0348C114.3 46.0348 108.715 46.1145 107.99 44.5212V42.8403C107.99 42.3623 108.229 41.964 108.635 41.725C109.169 41.4063 109.727 41.1354 110.308 40.9204V43.4776C110.308 43.5573 110.388 43.9635 115.423 43.9635C120.458 43.9635 120.537 43.4776 120.537 43.4776V39.3271C120.537 38.8491 120.776 38.4507 121.183 38.2038ZM49.094 32.213H51.4043V44.5212C50.6873 46.1145 45.1745 46.0348 44.0513 46.0348C42.928 46.0348 37.4232 46.1145 36.7062 44.5212V32.213H39.0165V43.4776C39.0165 43.4776 39.0165 43.9635 44.0513 43.9635C49.0861 43.9635 49.094 43.4776 49.094 43.4776V32.213ZM141.641 32.213V45.8755H140.119C139.8 45.8755 139.402 45.7162 139.163 45.4772L133.969 40.283L128.854 45.4772C128.536 45.7162 128.209 45.8755 127.811 45.8755H126.297V32.213H128.456V42.9199L133.969 37.4071L139.482 42.9199V32.213H141.641ZM87.6119 41.8843C87.6119 42.4419 87.6119 45.4772 86.8153 45.8755H73.9494C72.4278 45.2382 72.5075 40.1237 72.5075 39.0881C72.5075 38.0524 72.4278 32.9379 73.9494 32.213H87.4526C87.2375 32.9061 86.9746 33.5195 86.656 34.0533C86.3373 34.4516 85.939 34.6906 85.453 34.6906H75.1444C75.1444 34.6906 74.7461 34.6906 74.7461 39.0881C74.7461 43.4856 75.1444 43.4776 75.1444 43.4776H85.214C85.214 43.4776 85.453 43.4776 85.453 41.8843C85.453 40.291 85.214 39.9644 85.214 39.9644H78.8249C79.04 39.4306 79.279 38.9287 79.5419 38.4507C79.7809 38.0445 80.1792 37.8055 80.6572 37.8055H86.8153C87.6119 38.2118 87.6119 41.247 87.6119 41.8843ZM100.079 39.9644L105.919 45.8755H103.194C102.796 45.8755 102.477 45.7162 102.159 45.4772L96.7256 39.9644H93.0451V45.8755H90.8941V37.8055H102.159C102.159 37.8055 102.398 37.8055 102.398 36.1325C102.398 34.4595 102.159 34.6906 102.159 34.6906H90.8941V32.213H103.76C104.636 32.6193 104.557 35.4952 104.557 36.1325C104.557 36.7698 104.636 39.6457 103.76 39.9644H100.079ZM33.424 40.3627V43.3979C33.424 43.3979 33.424 45.8755 30.5481 45.8755H18.0806C18.2957 45.2382 18.5586 44.6248 18.8772 44.0432C19.1162 43.7166 19.5942 43.4776 20.0722 43.4776H30.5481C31.2651 43.4776 31.2651 42.7606 31.2651 42.7606V40.6814C31.2651 40.6814 31.2651 39.9644 30.5481 39.9644H20.9565C18.0806 39.9644 18.0806 37.4868 18.0806 37.4868V34.7702C18.0806 34.7702 18.0806 32.213 20.9565 32.213H33.2647C33.1053 32.9061 32.8345 33.5195 32.46 34.0533C32.2211 34.4516 31.7431 34.6906 31.3447 34.6906H20.9565C20.2315 34.6906 20.2315 35.3279 20.2315 35.3279V37.1681C20.2315 37.1681 20.2315 37.8055 20.9565 37.8055H30.5481C33.424 37.8055 33.424 40.3627 33.424 40.3627ZM67.3054 32.213H69.6236V45.8755H68.11C67.7913 45.8755 67.393 45.7162 67.1461 45.4772L57.0764 35.4155V45.8755H54.7582V32.213H56.2798C56.5985 32.213 56.9968 32.3723 57.2358 32.699L67.3054 42.7606V32.213Z" fill="white"/>
</g>
</g>
<defs>
<clipPath id="clip0_7_98">
<rect width="123.64" height="27.086" fill="white" transform="translate(18 26)"/>
</clipPath>
</defs>
</svg>
