<svg width="303" height="307" viewBox="0 0 303 307" fill="none" xmlns="http://www.w3.org/2000/svg">
<path d="M255.459 102.584L252.282 204.366M285.066 114.84L222.624 195.338M302.719 142.48L204.921 170.926M301.659 175.567L205.829 141.068M282.292 202.046L225.045 117.766M251.928 212.436L255.156 110.604M222.171 203.357L284.612 122.86M204.316 178.946L302.164 150.499M205.123 149.037L300.953 183.586M224.188 125.785L281.485 210.015M254.198 118.573L251.021 220.405M283.553 130.829L221.111 211.326M300.953 158.468L203.105 186.864M299.642 191.505L203.811 157.006M280.022 217.934L222.776 133.704M249.407 228.324L252.635 126.491M219.447 219.195L281.838 138.697M201.34 194.733L299.138 166.286M201.844 164.823L297.725 199.322M220.708 141.471L277.954 225.701M250.466 134.208L247.238 236.041M279.568 146.414L217.127 226.912M296.717 173.953L198.869 202.399M295.153 206.938L199.323 172.439M275.281 233.317L218.035 149.087M244.464 243.606L247.641 141.774M214.201 234.427L276.643 153.929M195.893 209.864L293.69 181.417M196.195 179.854L292.026 214.353M214.756 156.4L272.053 240.681M244.312 149.087L241.084 250.92M273.162 161.192L210.721 241.639M290.109 188.63L192.261 217.026M288.344 221.515L192.463 186.965M268.22 247.742L210.973 163.512M237.15 257.93L240.378 156.098M206.686 248.599L269.128 168.152M188.125 223.936L285.923 195.54M188.226 193.825L284.057 228.324M206.585 170.271L263.882 254.501M235.889 162.806L232.712 264.588M264.538 174.76L202.097 255.257M281.283 202.046L183.435 230.493M279.265 234.78L183.435 200.281M258.99 260.906L201.744 176.676M227.719 270.943L230.896 169.111M197.053 261.461L259.494 180.963M178.29 236.646L276.088 208.199M178.189 206.333L274.02 240.883M196.347 182.628L253.593 266.908M225.449 175.012L222.271 276.844M253.946 186.814L191.505 267.312M270.439 213.949L172.641 242.345M268.27 246.532L172.44 211.982M247.793 272.456L190.546 188.176M216.32 282.291L219.548 180.459M185.503 272.658L247.944 192.16M166.538 247.641L264.386 219.195M166.286 217.177L262.117 251.676M184.292 193.27L241.538 277.55M213.243 185.452L210.015 287.285M241.538 197.053L179.097 277.55M257.88 223.986L160.082 252.433M255.56 256.367L159.729 221.868M234.931 282.09L177.685 197.86M203.358 291.723L206.535 189.941M172.339 281.888L234.78 201.441M153.273 256.669L251.071 228.273M152.82 226.004L248.7 260.503M170.725 201.895L227.971 286.125M199.524 193.875L196.347 295.657M227.719 205.224L165.277 285.721M243.959 231.955L146.111 260.402M241.488 264.084L145.657 229.585M220.708 289.605L163.462 205.375M189.033 299.037L192.211 197.204M157.914 288.949L220.355 208.502M138.697 263.529L236.545 235.082M138.193 232.611L234.023 267.11M155.947 208.3L213.243 292.53M184.645 200.029L181.468 301.811M212.739 211.175L150.298 291.622M228.879 237.655L131.081 266.051M226.357 269.531L130.526 235.032M205.526 294.85L148.28 210.57M173.7 303.979L176.928 202.197M142.53 293.69L204.971 213.193M123.263 268.018L221.111 239.571M122.709 236.848L218.539 271.347M140.412 212.285L197.658 296.515M169.01 203.761L165.832 305.593M197.053 214.655L134.612 295.153M213.142 240.933L115.345 269.329M210.57 272.557L114.739 238.058M189.689 297.574L132.443 213.344M157.863 306.501L161.041 204.719M126.643 295.96L189.033 215.462M107.325 270.035L205.123 241.589M106.72 238.613L202.551 273.112M124.373 213.798L181.67 298.028M153.021 205.022L149.793 306.854M181.014 215.664L118.573 296.162M197.103 241.69L99.2553 270.086M194.481 273.061L98.6501 238.562M173.6 297.826L116.353 213.596M141.774 306.501L144.951 204.719M110.553 295.708L172.994 215.21M91.2358 269.531L189.084 241.084M90.6306 237.856L186.511 272.355M108.334 212.789L165.58 297.019M136.982 203.761L133.805 305.593M165.025 214.151L102.584 294.649M181.115 239.924L83.3172 268.32M178.542 271.044L82.7119 236.545M157.712 295.607L100.415 211.326M125.886 303.979L129.114 202.197M94.716 292.934L157.157 212.487M75.449 266.505L173.297 238.109M74.8942 234.628L170.725 269.127M92.648 209.259L149.894 293.539M121.347 200.029L118.169 301.811M149.44 210.166L86.9991 290.664M165.631 235.637L67.7826 264.084M163.109 266.555L67.2782 232.056M142.329 290.866L85.0825 206.585M110.604 299.037L113.781 197.204M79.484 287.739L141.925 207.241M60.3179 261.057L158.166 232.661M59.8639 228.929L155.694 263.428M77.7187 203.357L134.965 287.587M106.518 193.875L103.29 295.657M134.662 203.761L72.2715 284.259M150.953 229.03L53.1558 257.476M148.583 259.696L52.7018 225.197M127.904 283.805L70.607 199.524M96.2795 291.723L99.4571 189.941M65.3111 280.224L127.702 199.726M46.2459 253.29L144.094 224.894M45.8928 220.96L141.723 255.459M63.8485 195.187L121.145 279.417M92.7994 185.452L89.5714 287.285M121.095 195.136L58.6534 275.634M137.537 220.203L39.6891 248.65M135.267 250.667L39.4369 216.168M114.739 274.524L57.4934 190.294M83.2667 282.291L86.4947 180.459M52.4497 270.59L114.891 190.092M33.5357 243.455L131.384 215.059M33.334 210.923L129.215 245.422M51.4914 184.948L108.737 269.178M80.5431 175.012L77.3656 276.844M109.04 184.544L46.599 265.042M125.634 209.41L27.7859 237.806M123.566 239.672L27.7355 205.173M103.189 263.378L45.9433 179.097M71.9184 270.943L75.0959 169.111M41.2526 259.04L103.694 178.542M22.5405 231.753L120.338 203.307M22.5405 199.02L118.371 233.519M40.8491 172.843L98.0952 257.123M70.1027 162.806L66.9251 264.588M98.8014 172.137L36.3602 252.634M115.597 196.851L17.7489 225.298M113.68 226.962L17.8498 192.463M93.5559 250.516L36.2594 166.236M62.4362 257.93L65.6642 156.098M32.0226 245.876L94.4638 165.378M13.5122 218.438L111.31 190.042M13.714 185.604L109.544 220.103M32.2244 159.275L89.4705 243.556M61.7301 149.087L58.5021 250.92M90.6306 158.317L28.1894 238.815M107.628 182.88L9.77988 211.326M105.963 212.89L10.1329 178.391M85.9903 236.293L28.7442 152.012M55.1733 243.606L58.3508 141.774M24.911 231.451L87.3521 150.953M6.65277 203.912L104.501 175.466M7.1067 170.926L102.937 205.425M25.8693 144.548L83.1154 228.778M55.5768 134.208L52.3488 236.041M84.679 143.337L22.2883 223.835M101.928 167.85L4.13092 196.246M100.516 197.759L4.68573 163.26M80.7953 221.061L23.5492 136.831M50.18 228.324L53.408 126.491M20.2204 216.068L82.6615 135.57M2.16387 188.478L100.012 160.032M2.86999 155.442L98.7005 189.941M21.8343 128.963L79.1309 213.193M51.794 118.573L48.6165 220.405M81.1988 127.651L18.7577 208.149M98.7005 152.113L0.852504 180.509M97.49 181.972L1.6595 147.473M78.0213 205.224L20.7752 120.994M47.6581 212.436L50.8861 110.604M17.9507 200.129L80.3918 119.682M0.146387 172.49L97.9944 144.094M1.10469 139.454L96.9352 173.953M20.3212 112.974L77.6178 197.204M50.5331 102.584L47.3555 204.366M80.1901 111.612L17.7489 192.11M97.8935 136.024L0.0959473 164.47M96.9856 165.883L1.15513 131.384M77.7691 189.185L20.523 104.904M47.6581 196.347L50.8861 94.5141M18.2029 184.09L80.644 103.593M0.650759 156.451L98.4987 128.004M1.86125 123.364L97.6918 157.914M21.33 96.9351L78.6265 181.165M51.794 86.545L48.6165 188.378M81.7032 95.6237L19.262 176.121M99.7092 120.086L1.86125 148.482M99.0031 149.944L3.17261 115.446M80.0388 173.246L22.7926 89.0164M50.18 180.459L53.408 78.6264M20.9769 168.253L83.3676 87.7555M3.67699 140.664L101.475 112.218M5.08922 107.628L100.92 142.127M24.8606 81.2491L82.1067 165.479M55.5768 70.9095L52.3488 172.742M85.6877 80.0386L23.2466 160.536M103.946 104.551L6.09796 132.998M103.492 134.511L7.66151 100.012M84.7799 157.863L27.5337 73.6331M55.1733 165.176L58.3508 63.344M26.1719 153.021L88.6131 72.5235M9.12419 125.533L106.922 97.0864M10.7886 92.5975L106.619 127.096M30.7617 66.2693L88.0583 150.55M61.7301 56.0306L58.5021 157.863M92.0932 65.311L29.6521 145.758M110.553 89.9243L12.7052 118.32M110.351 119.985L14.4705 85.4354M91.8411 143.438L34.5949 59.2081M62.4362 150.852L65.6642 49.0198M33.6871 138.798L96.1282 58.3507M16.8915 111.411L114.689 83.0144M18.7577 78.6264L114.588 113.125M38.9325 52.4495L96.2291 136.68M70.1027 42.3621L66.9251 144.144M100.718 51.693L38.2768 132.191M119.38 76.4576L21.5317 104.904M119.38 106.669L23.5492 72.1705M101.071 130.274L43.8249 46.044M71.9184 137.84L75.0959 36.007M43.3206 125.987L105.762 45.4892M26.7267 98.7508L124.524 70.3043M28.7947 66.0676L124.625 100.617M49.2217 40.042L106.468 124.322M80.5431 30.1059L77.3656 131.938M111.31 39.6385L48.8686 120.136M130.173 64.6049L32.3757 93.001M130.375 94.968L34.5445 60.4186M112.268 118.774L55.022 34.4939M83.2667 126.491L86.4947 24.6587M54.8707 114.79L117.312 34.2922M38.4282 87.7555L136.276 59.309M40.6978 55.274L136.528 89.773M61.2762 29.3998L118.522 113.68M92.7994 19.6654L89.5714 121.498M123.717 29.3998L61.2762 109.897M142.732 54.5175L44.9345 82.964M143.085 85.0824L47.2546 50.5834M125.13 109.09L67.8834 24.8604M96.2795 117.009L99.4571 15.227M68.0347 105.509L130.476 25.0622M51.7435 78.6768L149.541 50.2807M54.1141 46.4475L149.995 80.9465M74.8438 20.8255L132.09 105.055M106.518 11.2929L103.29 113.075M137.537 21.229L75.0959 101.727M156.703 46.5484L58.8552 74.9949M157.157 77.3655L61.3266 42.8665M139.353 101.575L82.1067 17.3453M110.604 109.746L113.781 7.91358M82.4597 98.4482L144.901 18.001M66.2694 71.8678L164.117 43.4213M68.7913 39.8403L164.622 74.3393M89.5714 14.42L146.868 98.6499M121.347 5.13954L118.169 106.922M152.517 15.3278L90.0758 95.775M171.733 40.8994L73.9359 69.2955M172.288 71.9183L76.4577 37.4193M154.534 96.3803L97.2883 12.0999M125.886 104.753L129.114 2.97074M97.8431 93.7575L160.284 13.2599M81.7032 67.3789L179.551 38.9324M84.2755 35.6036L180.106 70.1025M105.156 10.4354L162.403 94.6654M136.982 1.35675L133.805 103.189M168.203 11.7972L105.762 92.2949M187.47 37.621L89.6722 66.0171M188.075 68.892L92.2446 34.3931M170.372 93.6062L113.125 9.37625M141.774 102.231L144.951 0.448883M113.781 91.4879L176.172 10.9902M97.6918 65.3614L195.489 36.9149M100.264 33.8383L196.095 68.3372M121.145 8.92232L178.442 93.1523M153.021 0.0958252L149.793 101.928M184.242 10.7885L121.801 91.2861M203.559 36.8645L105.711 65.2606M204.164 68.3877L108.334 33.8887M186.461 93.354L129.215 9.12407M157.863 102.231L161.041 0.448883M129.82 91.7401L192.261 11.2424M113.731 65.8658L211.579 37.4193M116.303 34.5948L212.184 69.0938M137.234 9.93106L194.481 94.161M169.01 1.35675L165.832 103.189M200.23 12.3016L137.789 92.7992M219.497 38.6298L121.7 67.0259M220.103 70.4052L124.272 35.9062M202.399 95.6237L145.103 11.3433M173.7 104.753L176.928 2.97074M145.657 94.4637L208.099 14.0165M129.518 68.8416L227.366 40.4455M132.09 37.8228L227.92 72.3218M152.92 13.4112L210.167 97.6916M184.645 5.13954L181.468 106.922M215.815 16.2861L153.374 96.7838M235.032 42.8665L137.184 71.313M235.536 74.8941L139.706 40.3951M217.732 100.365L160.486 16.0844M189.033 109.746L192.211 7.91358M160.889 99.7091L223.331 19.2115M144.649 74.2888L242.497 45.8927M147.12 43.5222L242.951 78.0212M167.85 19.3628L225.096 103.593M199.524 11.2929L196.296 113.075M230.543 22.6916L168.152 103.189M249.659 49.4738L151.861 77.9203M250.113 81.7535L154.232 47.2545M232.208 107.426L174.911 23.1456M203.358 117.009L206.535 15.227M175.113 107.224L237.503 26.7266M158.721 82.0561L256.569 53.66M161.091 51.4912L256.922 85.9902M181.67 27.5336L238.966 111.764M213.243 19.6654L210.015 121.498M244.161 31.3164L181.72 111.814M263.125 58.3003L165.277 86.7468M263.378 90.7817L167.547 56.2828M245.321 116.656L188.075 32.426M216.32 126.491L219.548 24.6587M187.924 116.858L250.365 36.3601M171.431 91.8914L269.279 63.4953M173.6 61.5282L269.481 96.0272M194.077 37.7723L251.323 122.002M225.449 30.1059L222.271 131.938M256.216 41.9082L193.774 122.406M275.029 69.1442L177.181 97.5403M275.079 101.777L179.249 67.2781M256.871 127.853L199.625 43.5726M227.719 137.84L230.896 36.007M199.121 128.408L261.562 47.9102M182.477 103.643L280.274 75.1967M184.444 73.4314L280.274 107.93M204.719 49.8268L261.965 134.107M235.889 42.3621L232.712 144.144M266.454 54.3157L204.013 134.813M285.066 81.6526L187.218 110.099M284.965 114.487L189.134 79.9882M266.555 140.714L209.259 56.4341M237.15 150.852L240.378 49.0198M208.351 141.572L270.792 61.0743M191.505 116.908L289.302 88.5121M193.27 86.8477L289.101 121.397M213.344 63.3944L270.59 147.675M244.312 56.0306L241.084 157.863M274.625 68.1355L212.184 148.633M293.035 95.6237L195.187 124.07M292.682 128.559L196.851 94.0602M274.07 154.938L216.824 70.6573M244.464 165.176L247.641 63.344M215.462 155.997L277.904 75.4993M198.314 131.484L296.162 103.038M199.877 101.525L295.708 136.024M219.699 78.1725L276.945 162.402M250.466 70.9095L247.238 172.742M280.526 83.1153L218.136 163.613M298.684 110.704L200.886 139.101M298.129 143.69L202.298 109.191M279.265 170.119L222.019 85.8894M249.407 180.459L252.635 78.6264M220.153 171.38L282.594 90.8826M202.803 146.918L300.651 118.472M204.114 117.009L299.945 151.508M223.684 93.7575L280.98 177.988M254.198 86.545L251.021 188.378M284.057 98.8013L221.616 179.299M301.962 126.441L204.114 154.837M301.155 159.477L205.325 124.978M282.039 185.957L224.793 101.727M251.928 196.347L255.156 94.5141M222.423 187.268L284.864 106.821M204.82 162.856L302.668 134.46M205.879 132.998L301.71 167.497M225.197 109.746L282.493 193.976" stroke="#0A0A0A" stroke-width="0.191724" stroke-miterlimit="10" stroke-linecap="round"/>
</svg>
